#define pattern_158_width 20
#define pattern_158_height 20
static unsigned char pattern_158_bits[] = {
   0x1f, 0x00, 0x07, 0xd1, 0x7f, 0x05, 0x55, 0x55, 0x07, 0xd1, 0x7f, 0x05,
   0x15, 0x00, 0x07, 0xf1, 0x7f, 0x05, 0x15, 0x40, 0x07, 0x51, 0x55, 0x05,
   0x15, 0x40, 0x07, 0xf1, 0x7f, 0x00, 0x3f, 0x82, 0x0f, 0xa0, 0xba, 0x00,
   0x2a, 0xaa, 0x0a, 0xa0, 0xba, 0x00, 0x3f, 0xaa, 0x0f, 0xa0, 0x3a, 0x00,
   0x2f, 0xaa, 0x0f, 0xaa, 0xba, 0x0a, 0x2f, 0xaa, 0x0f, 0xe0, 0x3b, 0x00 };
