#define pattern_097_width 24
#define pattern_097_height 24
static unsigned char pattern_097_bits[] = {
   0x30, 0x9b, 0xcd, 0x30, 0x9b, 0xcd, 0xbf, 0x9b, 0xdd, 0xdf, 0xfb, 0xbd,
   0xc0, 0xf1, 0x38, 0x9f, 0x04, 0x92, 0x3f, 0xfe, 0xc7, 0x7f, 0xfc, 0xe3,
   0x20, 0xf9, 0x49, 0x8f, 0x03, 0x1c, 0xdf, 0xfb, 0xbd, 0xd9, 0xfd, 0xbb,
   0xd9, 0x0c, 0xb3, 0xd9, 0x0c, 0xb3, 0xd9, 0xfd, 0xbb, 0xdf, 0xfb, 0xbd,
   0x8f, 0x03, 0x1c, 0x20, 0xf9, 0x49, 0x7f, 0xfc, 0xe3, 0x3f, 0xfe, 0xc7,
   0x9f, 0x04, 0x92, 0xc0, 0xf1, 0x38, 0xdf, 0xfb, 0xbd, 0xbf, 0x9b, 0xdd };
