#define pattern_046_width 8
#define pattern_046_height 16
static unsigned char pattern_046_bits[] = {
   0xc1, 0x80, 0x9c, 0x15, 0x27, 0x20, 0x70, 0xff, 0x70, 0x20, 0x27, 0x15,
   0x9c, 0x80, 0xc1, 0xff };
