#define pattern_155_width 14
#define pattern_155_height 8
static unsigned char pattern_155_bits[] = {
   0x60, 0x35, 0x1b, 0x05, 0x60, 0x35, 0xff, 0x3f, 0x6a, 0x30, 0x8a, 0x0d,
   0x6a, 0x30, 0xff, 0x3f };
