#define pattern_156_width 56
#define pattern_156_height 32
static unsigned char pattern_156_bits[] = {
   0x01, 0x40, 0x30, 0x10, 0x18, 0x04, 0x00, 0x07, 0x80, 0x31, 0x10, 0x18,
   0x03, 0xc0, 0x1f, 0x00, 0x36, 0x10, 0xd8, 0x00, 0xf0, 0x79, 0x00, 0x38,
   0x10, 0x38, 0x00, 0x3c, 0xe1, 0x00, 0x38, 0x10, 0x38, 0x00, 0x0e, 0x81,
   0x03, 0x1e, 0x10, 0xf0, 0x80, 0x03, 0x81, 0x8f, 0x07, 0x10, 0xc0, 0xe3,
   0x03, 0x81, 0xff, 0x01, 0x10, 0x00, 0xff, 0x03, 0x81, 0x7f, 0x00, 0x10,
   0x00, 0xfc, 0x03, 0x81, 0x3f, 0x00, 0x6c, 0x00, 0xf8, 0x03, 0x81, 0x0f,
   0x00, 0x83, 0x01, 0xe0, 0x03, 0x81, 0x03, 0xc0, 0x00, 0x06, 0x80, 0x03,
   0x81, 0x01, 0x20, 0x00, 0x08, 0x00, 0x03, 0x81, 0x01, 0x18, 0x00, 0x30,
   0x00, 0x03, 0x81, 0x01, 0x06, 0x00, 0xc0, 0x00, 0x03, 0x81, 0x81, 0x01,
   0x00, 0x00, 0x03, 0x03, 0x81, 0x41, 0x00, 0x10, 0x00, 0x04, 0x03, 0x81,
   0x31, 0x00, 0x7c, 0x00, 0x18, 0x03, 0x81, 0x0d, 0x00, 0xff, 0x01, 0x60,
   0x03, 0x81, 0x03, 0xc0, 0x93, 0x07, 0x80, 0x03, 0x81, 0x03, 0xe0, 0x10,
   0x0e, 0x80, 0x03, 0x01, 0x0f, 0x38, 0x10, 0x38, 0xe0, 0x01, 0x01, 0x3c,
   0x3e, 0x10, 0xf8, 0x78, 0x00, 0x01, 0xf0, 0x3f, 0x10, 0xf8, 0x1f, 0x00,
   0x01, 0xc0, 0x3f, 0x10, 0xf8, 0x07, 0x00, 0x06, 0x80, 0x3f, 0x10, 0xf8,
   0x03, 0xc0, 0x18, 0x00, 0x3e, 0x10, 0xf8, 0x00, 0x30, 0x60, 0x00, 0x38,
   0x10, 0x38, 0x00, 0x0c, 0x80, 0x00, 0x30, 0x10, 0x18, 0x00, 0x02, 0x00,
   0x03, 0x30, 0x10, 0x18, 0x80, 0x01, 0x00, 0x0c, 0x30, 0x10, 0x18, 0x60,
   0x00, 0x00, 0x30, 0x30, 0x10, 0x18, 0x18, 0x00 };
