#define pattern_082_width 24
#define pattern_082_height 20
static unsigned char pattern_082_bits[] = {
   0xff, 0xff, 0xff, 0x8e, 0xe1, 0xff, 0x73, 0xdc, 0xfe, 0x09, 0xe3, 0x01,
   0xfd, 0x0f, 0xfe, 0xfd, 0xff, 0xff, 0xfd, 0x0e, 0xfe, 0x09, 0xe3, 0x01,
   0x73, 0xdc, 0xff, 0x8f, 0xe1, 0xff, 0xff, 0xbf, 0xff, 0xfb, 0x7f, 0x18,
   0xfc, 0xbf, 0xe3, 0x09, 0x78, 0x0c, 0xfb, 0x07, 0xff, 0xfb, 0xff, 0xff,
   0xfb, 0x07, 0xfb, 0x09, 0x78, 0x0c, 0xfc, 0xbf, 0xe3, 0xff, 0x7f, 0x18 };
