#define pattern_117_gif_width 136
#define pattern_117_gif_height 136
static unsigned char pattern_117_gif_bits[] = {
   0x33, 0x33, 0x33, 0x33, 0x00, 0x33, 0x33, 0x00, 0x00, 0x00, 0x33, 0x00,
   0x00, 0x00, 0x33, 0x33, 0x00, 0x33, 0x33, 0x33, 0x33, 0x00, 0x33, 0x33,
   0x00, 0x00, 0x00, 0x33, 0x00, 0x00, 0x00, 0x33, 0x33, 0x00, 0xf3, 0xff,
   0xf3, 0xff, 0xff, 0xf3, 0xff, 0x3f, 0x00, 0xff, 0x33, 0x00, 0x00, 0x00,
   0xf3, 0x33, 0x00, 0xf3, 0xff, 0xf3, 0xff, 0xff, 0xf3, 0xff, 0x3f, 0x00,
   0xff, 0x33, 0x00, 0x00, 0x00, 0xf3, 0x33, 0x00, 0x03, 0x00, 0x33, 0x00,
   0x00, 0x33, 0x00, 0x30, 0x00, 0x03, 0x33, 0x00, 0x00, 0x00, 0x33, 0x30,
   0x00, 0x03, 0x00, 0x33, 0x00, 0x00, 0x33, 0x00, 0x30, 0x00, 0x03, 0x33,
   0x00, 0x00, 0x00, 0x33, 0x30, 0x00, 0xff, 0xff, 0xf3, 0xff, 0xff, 0xf3,
   0xff, 0x33, 0x00, 0xf3, 0x33, 0x00, 0x00, 0x00, 0xf3, 0x3f, 0x00, 0xff,
   0xff, 0xf3, 0xff, 0xff, 0xf3, 0xff, 0x33, 0x00, 0xf3, 0x33, 0x00, 0x00,
   0x00, 0xf3, 0x3f, 0x00, 0x00, 0x33, 0x33, 0x00, 0x33, 0x33, 0x33, 0x33,
   0x00, 0x33, 0x33, 0x00, 0x00, 0x00, 0x33, 0x00, 0x00, 0x00, 0x33, 0x33,
   0x00, 0x33, 0x33, 0x33, 0x33, 0x00, 0x33, 0x33, 0x00, 0x00, 0x00, 0x33,
   0x00, 0x00, 0x00, 0xf3, 0x33, 0x00, 0xf3, 0xff, 0xf3, 0xff, 0xff, 0xf3,
   0xff, 0x3f, 0x00, 0xff, 0x33, 0x00, 0x00, 0x00, 0xf3, 0x33, 0x00, 0xf3,
   0xff, 0xf3, 0xff, 0xff, 0xf3, 0xff, 0x3f, 0x00, 0xff, 0x33, 0x00, 0x00,
   0x00, 0x33, 0x30, 0x00, 0x03, 0x00, 0x33, 0x00, 0x00, 0x33, 0x00, 0x30,
   0x00, 0x03, 0x33, 0x00, 0x00, 0x00, 0x33, 0x30, 0x00, 0x03, 0x00, 0x33,
   0x00, 0x00, 0x33, 0x00, 0x30, 0x00, 0x03, 0x33, 0x00, 0x00, 0x00, 0xf3,
   0x3f, 0x00, 0xff, 0xff, 0xf3, 0xff, 0xff, 0xf3, 0xff, 0x33, 0x00, 0xf3,
   0x33, 0x00, 0x00, 0x00, 0xf3, 0x3f, 0x00, 0xff, 0xff, 0xf3, 0xff, 0xff,
   0xf3, 0xff, 0x33, 0x00, 0xf3, 0x33, 0x00, 0x00, 0x00, 0x33, 0x00, 0x00,
   0x00, 0x33, 0x33, 0x00, 0x33, 0x33, 0x33, 0x33, 0x00, 0x33, 0x33, 0x00,
   0x00, 0x00, 0x33, 0x00, 0x00, 0x00, 0x33, 0x33, 0x00, 0x33, 0x33, 0x33,
   0x33, 0x00, 0x33, 0x33, 0x00, 0x00, 0xff, 0x33, 0x00, 0x00, 0x00, 0xf3,
   0x33, 0x00, 0xf3, 0xff, 0xf3, 0xff, 0xff, 0xf3, 0xff, 0x3f, 0x00, 0xff,
   0x33, 0x00, 0x00, 0x00, 0xf3, 0x33, 0x00, 0xf3, 0xff, 0xf3, 0xff, 0xff,
   0xf3, 0xff, 0x3f, 0x00, 0x03, 0x33, 0x00, 0x00, 0x00, 0x33, 0x30, 0x00,
   0x03, 0x00, 0x33, 0x00, 0x00, 0x33, 0x00, 0x30, 0x00, 0x03, 0x33, 0x00,
   0x00, 0x00, 0x33, 0x30, 0x00, 0x03, 0x00, 0x33, 0x00, 0x00, 0x33, 0x00,
   0x30, 0x00, 0xf3, 0x33, 0x00, 0x00, 0x00, 0xf3, 0x3f, 0x00, 0xff, 0xff,
   0xf3, 0xff, 0xff, 0xf3, 0xff, 0x33, 0x00, 0xf3, 0x33, 0x00, 0x00, 0x00,
   0xf3, 0x3f, 0x00, 0xff, 0xff, 0xf3, 0xff, 0xff, 0xf3, 0xff, 0x33, 0x00,
   0x33, 0x33, 0x00, 0x00, 0x00, 0x33, 0x00, 0x00, 0x00, 0x33, 0x33, 0x00,
   0x33, 0x33, 0x33, 0x33, 0x00, 0x33, 0x33, 0x00, 0x00, 0x00, 0x33, 0x00,
   0x00, 0x00, 0x33, 0x33, 0x00, 0x33, 0x33, 0x33, 0x33, 0x00, 0xf3, 0xff,
   0x3f, 0x00, 0xff, 0x33, 0x00, 0x00, 0x00, 0xf3, 0x33, 0x00, 0xf3, 0xff,
   0xf3, 0xff, 0xff, 0xf3, 0xff, 0x3f, 0x00, 0xff, 0x33, 0x00, 0x00, 0x00,
   0xf3, 0x33, 0x00, 0xf3, 0xff, 0xf3, 0xff, 0xff, 0x33, 0x00, 0x30, 0x00,
   0x03, 0x33, 0x00, 0x00, 0x00, 0x33, 0x30, 0x00, 0x03, 0x00, 0x33, 0x00,
   0x00, 0x33, 0x00, 0x30, 0x00, 0x03, 0x33, 0x00, 0x00, 0x00, 0x33, 0x30,
   0x00, 0x03, 0x00, 0x33, 0x00, 0x00, 0xf3, 0xff, 0x33, 0x00, 0xf3, 0x33,
   0x00, 0x00, 0x00, 0xf3, 0x3f, 0x00, 0xff, 0xff, 0xf3, 0xff, 0xff, 0xf3,
   0xff, 0x33, 0x00, 0xf3, 0x33, 0x00, 0x00, 0x00, 0xf3, 0x3f, 0x00, 0xff,
   0xff, 0xf3, 0xff, 0xff, 0x33, 0x33, 0x33, 0x00, 0x33, 0x33, 0x00, 0x00,
   0x00, 0x33, 0x00, 0x00, 0x00, 0x33, 0x33, 0x00, 0x33, 0x33, 0x33, 0x33,
   0x00, 0x33, 0x33, 0x00, 0x00, 0x00, 0x33, 0x00, 0x00, 0x00, 0x33, 0x33,
   0x00, 0x33, 0xff, 0xf3, 0xff, 0xff, 0xf3, 0xff, 0x3f, 0x00, 0xff, 0x33,
   0x00, 0x00, 0x00, 0xf3, 0x33, 0x00, 0xf3, 0xff, 0xf3, 0xff, 0xff, 0xf3,
   0xff, 0x3f, 0x00, 0xff, 0x33, 0x00, 0x00, 0x00, 0xf3, 0x33, 0x00, 0xf3,
   0x00, 0x33, 0x00, 0x00, 0x33, 0x00, 0x30, 0x00, 0x03, 0x33, 0x00, 0x00,
   0x00, 0x33, 0x30, 0x00, 0x03, 0x00, 0x33, 0x00, 0x00, 0x33, 0x00, 0x30,
   0x00, 0x03, 0x33, 0x00, 0x00, 0x00, 0x33, 0x30, 0x00, 0x03, 0xff, 0xf3,
   0xff, 0xff, 0xf3, 0xff, 0x33, 0x00, 0xf3, 0x33, 0x00, 0x00, 0x00, 0xf3,
   0x3f, 0x00, 0xff, 0xff, 0xf3, 0xff, 0xff, 0xf3, 0xff, 0x33, 0x00, 0xf3,
   0x33, 0x00, 0x00, 0x00, 0xf3, 0x3f, 0x00, 0xff, 0x33, 0x33, 0x00, 0x33,
   0x33, 0x33, 0x33, 0x00, 0x33, 0x33, 0x00, 0x00, 0x00, 0x33, 0x00, 0x00,
   0x00, 0x33, 0x33, 0x00, 0x33, 0x33, 0x33, 0x33, 0x00, 0x33, 0x33, 0x00,
   0x00, 0x00, 0x33, 0x00, 0x00, 0x00, 0xf3, 0x33, 0x00, 0xf3, 0xff, 0xf3,
   0xff, 0xff, 0xf3, 0xff, 0x3f, 0x00, 0xff, 0x33, 0x00, 0x00, 0x00, 0xf3,
   0x33, 0x00, 0xf3, 0xff, 0xf3, 0xff, 0xff, 0xf3, 0xff, 0x3f, 0x00, 0xff,
   0x33, 0x00, 0x00, 0x00, 0x33, 0x30, 0x00, 0x03, 0x00, 0x33, 0x00, 0x00,
   0x33, 0x00, 0x30, 0x00, 0x03, 0x33, 0x00, 0x00, 0x00, 0x33, 0x30, 0x00,
   0x03, 0x00, 0x33, 0x00, 0x00, 0x33, 0x00, 0x30, 0x00, 0x03, 0x33, 0x00,
   0x00, 0x00, 0xf3, 0x3f, 0x00, 0xff, 0xff, 0xf3, 0xff, 0xff, 0xf3, 0xff,
   0x33, 0x00, 0xf3, 0x33, 0x00, 0x00, 0x00, 0xf3, 0x3f, 0x00, 0xff, 0xff,
   0xf3, 0xff, 0xff, 0xf3, 0xff, 0x33, 0x00, 0xf3, 0x33, 0x00, 0x00, 0x00,
   0x33, 0x00, 0x00, 0x00, 0x33, 0x33, 0x00, 0x33, 0x33, 0x33, 0x33, 0x00,
   0x33, 0x33, 0x00, 0x00, 0x00, 0x33, 0x00, 0x00, 0x00, 0x33, 0x33, 0x00,
   0x33, 0x33, 0x33, 0x33, 0x00, 0x33, 0x33, 0x00, 0x00, 0x00, 0x33, 0x00,
   0x00, 0x00, 0xf3, 0x33, 0x00, 0xf3, 0xff, 0xf3, 0xff, 0xff, 0xf3, 0xff,
   0x3f, 0x00, 0xff, 0x33, 0x00, 0x00, 0x00, 0xf3, 0x33, 0x00, 0xf3, 0xff,
   0xf3, 0xff, 0xff, 0xf3, 0xff, 0x3f, 0x00, 0xff, 0x33, 0x00, 0x00, 0x00,
   0x33, 0x30, 0x00, 0x03, 0x00, 0x33, 0x00, 0x00, 0x33, 0x00, 0x30, 0x00,
   0x03, 0x33, 0x00, 0x00, 0x00, 0x33, 0x30, 0x00, 0x03, 0x00, 0x33, 0x00,
   0x00, 0x33, 0x00, 0x30, 0x00, 0x03, 0x33, 0x00, 0x00, 0x00, 0xf3, 0x3f,
   0x00, 0xff, 0xff, 0xf3, 0xff, 0xff, 0xf3, 0xff, 0x33, 0x00, 0xf3, 0x33,
   0x00, 0x00, 0x00, 0xf3, 0x3f, 0x00, 0xff, 0xff, 0xf3, 0xff, 0xff, 0xf3,
   0xff, 0x33, 0x00, 0xf3, 0x33, 0x00, 0x00, 0x00, 0x33, 0x00, 0x00, 0x00,
   0x33, 0x33, 0x00, 0x33, 0x33, 0x33, 0x33, 0x00, 0x33, 0x33, 0x00, 0x00,
   0x00, 0x33, 0x00, 0x00, 0x00, 0x33, 0x33, 0x00, 0x33, 0x33, 0x33, 0x33,
   0x00, 0x33, 0xff, 0x3f, 0x00, 0xff, 0x33, 0x00, 0x00, 0x00, 0xf3, 0x33,
   0x00, 0xf3, 0xff, 0xf3, 0xff, 0xff, 0xf3, 0xff, 0x3f, 0x00, 0xff, 0x33,
   0x00, 0x00, 0x00, 0xf3, 0x33, 0x00, 0xf3, 0xff, 0xf3, 0xff, 0xff, 0xf3,
   0x00, 0x30, 0x00, 0x03, 0x33, 0x00, 0x00, 0x00, 0x33, 0x30, 0x00, 0x03,
   0x00, 0x33, 0x00, 0x00, 0x33, 0x00, 0x30, 0x00, 0x03, 0x33, 0x00, 0x00,
   0x00, 0x33, 0x30, 0x00, 0x03, 0x00, 0x33, 0x00, 0x00, 0x33, 0xff, 0x33,
   0x00, 0xf3, 0x33, 0x00, 0x00, 0x00, 0xf3, 0x3f, 0x00, 0xff, 0xff, 0xf3,
   0xff, 0xff, 0xf3, 0xff, 0x33, 0x00, 0xf3, 0x33, 0x00, 0x00, 0x00, 0xf3,
   0x3f, 0x00, 0xff, 0xff, 0xf3, 0xff, 0xff, 0xf3, 0x33, 0x33, 0x00, 0x33,
   0x33, 0x00, 0x00, 0x00, 0x33, 0x00, 0x00, 0x00, 0x33, 0x33, 0x00, 0x33,
   0x33, 0x33, 0x33, 0x00, 0x33, 0x33, 0x00, 0x00, 0x00, 0x33, 0x00, 0x00,
   0x00, 0x33, 0x33, 0x00, 0x33, 0x33, 0xf3, 0xff, 0xff, 0xf3, 0xff, 0x3f,
   0x00, 0xff, 0x33, 0x00, 0x00, 0x00, 0xf3, 0x33, 0x00, 0xf3, 0xff, 0xf3,
   0xff, 0xff, 0xf3, 0xff, 0x3f, 0x00, 0xff, 0x33, 0x00, 0x00, 0x00, 0xf3,
   0x33, 0x00, 0xf3, 0xff, 0x33, 0x00, 0x00, 0x33, 0x00, 0x30, 0x00, 0x03,
   0x33, 0x00, 0x00, 0x00, 0x33, 0x30, 0x00, 0x03, 0x00, 0x33, 0x00, 0x00,
   0x33, 0x00, 0x30, 0x00, 0x03, 0x33, 0x00, 0x00, 0x00, 0x33, 0x30, 0x00,
   0x03, 0x00, 0xf3, 0xff, 0xff, 0xf3, 0xff, 0x33, 0x00, 0xf3, 0x33, 0x00,
   0x00, 0x00, 0xf3, 0x3f, 0x00, 0xff, 0xff, 0xf3, 0xff, 0xff, 0xf3, 0xff,
   0x33, 0x00, 0xf3, 0x33, 0x00, 0x00, 0x00, 0xf3, 0x3f, 0x00, 0xff, 0xff,
   0x33, 0x00, 0x33, 0x33, 0x33, 0x33, 0x00, 0x33, 0x33, 0x00, 0x00, 0x00,
   0x33, 0x00, 0x00, 0x00, 0x33, 0x33, 0x00, 0x33, 0x33, 0x33, 0x33, 0x00,
   0x33, 0x33, 0x00, 0x00, 0x00, 0x33, 0x00, 0x00, 0x00, 0x33, 0x33, 0x00,
   0xf3, 0xff, 0xf3, 0xff, 0xff, 0xf3, 0xff, 0x3f, 0x00, 0xff, 0x33, 0x00,
   0x00, 0x00, 0xf3, 0x33, 0x00, 0xf3, 0xff, 0xf3, 0xff, 0xff, 0xf3, 0xff,
   0x3f, 0x00, 0xff, 0x33, 0x00, 0x00, 0x00, 0xf3, 0x30, 0x00, 0x03, 0x00,
   0x33, 0x00, 0x00, 0x33, 0x00, 0x30, 0x00, 0x03, 0x33, 0x00, 0x00, 0x00,
   0x33, 0x30, 0x00, 0x03, 0x00, 0x33, 0x00, 0x00, 0x33, 0x00, 0x30, 0x00,
   0x03, 0x33, 0x00, 0x00, 0x00, 0x33, 0x3f, 0x00, 0xff, 0xff, 0xf3, 0xff,
   0xff, 0xf3, 0xff, 0x33, 0x00, 0xf3, 0x33, 0x00, 0x00, 0x00, 0xf3, 0x3f,
   0x00, 0xff, 0xff, 0xf3, 0xff, 0xff, 0xf3, 0xff, 0x33, 0x00, 0xf3, 0x33,
   0x00, 0x00, 0x00, 0xf3, 0x00, 0x00, 0x00, 0x33, 0x33, 0x00, 0x33, 0x33,
   0x33, 0x33, 0x00, 0x33, 0x33, 0x00, 0x00, 0x00, 0x33, 0x00, 0x00, 0x00,
   0x33, 0x33, 0x00, 0x33, 0x33, 0x33, 0x33, 0x00, 0x33, 0x33, 0x00, 0x00,
   0x00, 0x33, 0x00, 0x00, 0x00, 0xf3, 0x33, 0x00, 0xf3, 0xff, 0xf3, 0xff,
   0xff, 0xf3, 0xff, 0x3f, 0x00, 0xff, 0x33, 0x00, 0x00, 0x00, 0xf3, 0x33,
   0x00, 0xf3, 0xff, 0xf3, 0xff, 0xff, 0xf3, 0xff, 0x3f, 0x00, 0xff, 0x33,
   0x00, 0x00, 0x00, 0x33, 0x30, 0x00, 0x03, 0x00, 0x33, 0x00, 0x00, 0x33,
   0x00, 0x30, 0x00, 0x03, 0x33, 0x00, 0x00, 0x00, 0x33, 0x30, 0x00, 0x03,
   0x00, 0x33, 0x00, 0x00, 0x33, 0x00, 0x30, 0x00, 0x03, 0x33, 0x00, 0x00,
   0x00, 0xf3, 0x3f, 0x00, 0xff, 0xff, 0xf3, 0xff, 0xff, 0xf3, 0xff, 0x33,
   0x00, 0xf3, 0x33, 0x00, 0x00, 0x00, 0xf3, 0x3f, 0x00, 0xff, 0xff, 0xf3,
   0xff, 0xff, 0xf3, 0xff, 0x33, 0x00, 0xf3, 0x33, 0x00, 0x00, 0x00, 0x33,
   0x00, 0x00, 0x00, 0x33, 0x33, 0x00, 0x33, 0x33, 0x33, 0x33, 0x00, 0x33,
   0x33, 0x00, 0x00, 0x00, 0x33, 0x00, 0x00, 0x00, 0x33, 0x33, 0x00, 0x33,
   0x33, 0x33, 0x33, 0x00, 0x33, 0x33, 0x3f, 0x00, 0xff, 0x33, 0x00, 0x00,
   0x00, 0xf3, 0x33, 0x00, 0xf3, 0xff, 0xf3, 0xff, 0xff, 0xf3, 0xff, 0x3f,
   0x00, 0xff, 0x33, 0x00, 0x00, 0x00, 0xf3, 0x33, 0x00, 0xf3, 0xff, 0xf3,
   0xff, 0xff, 0xf3, 0xff, 0x30, 0x00, 0x03, 0x33, 0x00, 0x00, 0x00, 0x33,
   0x30, 0x00, 0x03, 0x00, 0x33, 0x00, 0x00, 0x33, 0x00, 0x30, 0x00, 0x03,
   0x33, 0x00, 0x00, 0x00, 0x33, 0x30, 0x00, 0x03, 0x00, 0x33, 0x00, 0x00,
   0x33, 0x00, 0x33, 0x00, 0xf3, 0x33, 0x00, 0x00, 0x00, 0xf3, 0x3f, 0x00,
   0xff, 0xff, 0xf3, 0xff, 0xff, 0xf3, 0xff, 0x33, 0x00, 0xf3, 0x33, 0x00,
   0x00, 0x00, 0xf3, 0x3f, 0x00, 0xff, 0xff, 0xf3, 0xff, 0xff, 0xf3, 0xff,
   0x33, 0x00, 0x33, 0x33, 0x00, 0x00, 0x00, 0x33, 0x00, 0x00, 0x00, 0x33,
   0x33, 0x00, 0x33, 0x33, 0x33, 0x33, 0x00, 0x33, 0x33, 0x00, 0x00, 0x00,
   0x33, 0x00, 0x00, 0x00, 0x33, 0x33, 0x00, 0x33, 0x33, 0x33, 0xff, 0xff,
   0xf3, 0xff, 0x3f, 0x00, 0xff, 0x33, 0x00, 0x00, 0x00, 0xf3, 0x33, 0x00,
   0xf3, 0xff, 0xf3, 0xff, 0xff, 0xf3, 0xff, 0x3f, 0x00, 0xff, 0x33, 0x00,
   0x00, 0x00, 0xf3, 0x33, 0x00, 0xf3, 0xff, 0xf3, 0x00, 0x00, 0x33, 0x00,
   0x30, 0x00, 0x03, 0x33, 0x00, 0x00, 0x00, 0x33, 0x30, 0x00, 0x03, 0x00,
   0x33, 0x00, 0x00, 0x33, 0x00, 0x30, 0x00, 0x03, 0x33, 0x00, 0x00, 0x00,
   0x33, 0x30, 0x00, 0x03, 0x00, 0x33, 0xff, 0xff, 0xf3, 0xff, 0x33, 0x00,
   0xf3, 0x33, 0x00, 0x00, 0x00, 0xf3, 0x3f, 0x00, 0xff, 0xff, 0xf3, 0xff,
   0xff, 0xf3, 0xff, 0x33, 0x00, 0xf3, 0x33, 0x00, 0x00, 0x00, 0xf3, 0x3f,
   0x00, 0xff, 0xff, 0xf3, 0x00, 0x33, 0x33, 0x33, 0x33, 0x00, 0x33, 0x33,
   0x00, 0x00, 0x00, 0x33, 0x00, 0x00, 0x00, 0x33, 0x33, 0x00, 0x33, 0x33,
   0x33, 0x33, 0x00, 0x33, 0x33, 0x00, 0x00, 0x00, 0x33, 0x00, 0x00, 0x00,
   0x33, 0x33, 0x00, 0xf3, 0xff, 0xf3, 0xff, 0xff, 0xf3, 0xff, 0x3f, 0x00,
   0xff, 0x33, 0x00, 0x00, 0x00, 0xf3, 0x33, 0x00, 0xf3, 0xff, 0xf3, 0xff,
   0xff, 0xf3, 0xff, 0x3f, 0x00, 0xff, 0x33, 0x00, 0x00, 0x00, 0xf3, 0x33,
   0x00, 0x03, 0x00, 0x33, 0x00, 0x00, 0x33, 0x00, 0x30, 0x00, 0x03, 0x33,
   0x00, 0x00, 0x00, 0x33, 0x30, 0x00, 0x03, 0x00, 0x33, 0x00, 0x00, 0x33,
   0x00, 0x30, 0x00, 0x03, 0x33, 0x00, 0x00, 0x00, 0x33, 0x30, 0x00, 0xff,
   0xff, 0xf3, 0xff, 0xff, 0xf3, 0xff, 0x33, 0x00, 0xf3, 0x33, 0x00, 0x00,
   0x00, 0xf3, 0x3f, 0x00, 0xff, 0xff, 0xf3, 0xff, 0xff, 0xf3, 0xff, 0x33,
   0x00, 0xf3, 0x33, 0x00, 0x00, 0x00, 0xf3, 0x3f, 0x00, 0x00, 0x33, 0x33,
   0x00, 0x33, 0x33, 0x33, 0x33, 0x00, 0x33, 0x33, 0x00, 0x00, 0x00, 0x33,
   0x00, 0x00, 0x00, 0x33, 0x33, 0x00, 0x33, 0x33, 0x33, 0x33, 0x00, 0x33,
   0x33, 0x00, 0x00, 0x00, 0x33, 0x00, 0x00, 0x00, 0xf3, 0x33, 0x00, 0xf3,
   0xff, 0xf3, 0xff, 0xff, 0xf3, 0xff, 0x3f, 0x00, 0xff, 0x33, 0x00, 0x00,
   0x00, 0xf3, 0x33, 0x00, 0xf3, 0xff, 0xf3, 0xff, 0xff, 0xf3, 0xff, 0x3f,
   0x00, 0xff, 0x33, 0x00, 0x00, 0x00, 0x33, 0x30, 0x00, 0x03, 0x00, 0x33,
   0x00, 0x00, 0x33, 0x00, 0x30, 0x00, 0x03, 0x33, 0x00, 0x00, 0x00, 0x33,
   0x30, 0x00, 0x03, 0x00, 0x33, 0x00, 0x00, 0x33, 0x00, 0x30, 0x00, 0x03,
   0x33, 0x00, 0x00, 0x00, 0xf3, 0x3f, 0x00, 0xff, 0xff, 0xf3, 0xff, 0xff,
   0xf3, 0xff, 0x33, 0x00, 0xf3, 0x33, 0x00, 0x00, 0x00, 0xf3, 0x3f, 0x00,
   0xff, 0xff, 0xf3, 0xff, 0xff, 0xf3, 0xff, 0x33, 0x00, 0xf3, 0x33, 0x00,
   0x00, 0x00, 0x33, 0x00, 0x00, 0x00, 0x33, 0x33, 0x00, 0x33, 0x33, 0x33,
   0x33, 0x00, 0x33, 0x33, 0x00, 0x00, 0x00, 0x33, 0x00, 0x00, 0x00, 0x33,
   0x33, 0x00, 0x33, 0x33, 0x33, 0x33, 0x00, 0x33, 0x33, 0x00, 0x00, 0xff,
   0x33, 0x00, 0x00, 0x00, 0xf3, 0x33, 0x00, 0xf3, 0xff, 0xf3, 0xff, 0xff,
   0xf3, 0xff, 0x3f, 0x00, 0xff, 0x33, 0x00, 0x00, 0x00, 0xf3, 0x33, 0x00,
   0xf3, 0xff, 0xf3, 0xff, 0xff, 0xf3, 0xff, 0x3f, 0x00, 0x03, 0x33, 0x00,
   0x00, 0x00, 0x33, 0x30, 0x00, 0x03, 0x00, 0x33, 0x00, 0x00, 0x33, 0x00,
   0x30, 0x00, 0x03, 0x33, 0x00, 0x00, 0x00, 0x33, 0x30, 0x00, 0x03, 0x00,
   0x33, 0x00, 0x00, 0x33, 0x00, 0x30, 0x00, 0xf3, 0x33, 0x00, 0x00, 0x00,
   0xf3, 0x3f, 0x00, 0xff, 0xff, 0xf3, 0xff, 0xff, 0xf3, 0xff, 0x33, 0x00,
   0xf3, 0x33, 0x00, 0x00, 0x00, 0xf3, 0x3f, 0x00, 0xff, 0xff, 0xf3, 0xff,
   0xff, 0xf3, 0xff, 0x33, 0x00, 0x33, 0x33, 0x00, 0x00, 0x00, 0x33, 0x00,
   0x00, 0x00, 0x33, 0x33, 0x00, 0x33, 0x33, 0x33, 0x33, 0x00, 0x33, 0x33,
   0x00, 0x00, 0x00, 0x33, 0x00, 0x00, 0x00, 0x33, 0x33, 0x00, 0x33, 0x33,
   0x33, 0x33, 0xff, 0xf3, 0xff, 0x3f, 0x00, 0xff, 0x33, 0x00, 0x00, 0x00,
   0xf3, 0x33, 0x00, 0xf3, 0xff, 0xf3, 0xff, 0xff, 0xf3, 0xff, 0x3f, 0x00,
   0xff, 0x33, 0x00, 0x00, 0x00, 0xf3, 0x33, 0x00, 0xf3, 0xff, 0xf3, 0xff,
   0x00, 0x33, 0x00, 0x30, 0x00, 0x03, 0x33, 0x00, 0x00, 0x00, 0x33, 0x30,
   0x00, 0x03, 0x00, 0x33, 0x00, 0x00, 0x33, 0x00, 0x30, 0x00, 0x03, 0x33,
   0x00, 0x00, 0x00, 0x33, 0x30, 0x00, 0x03, 0x00, 0x33, 0x00, 0xff, 0xf3,
   0xff, 0x33, 0x00, 0xf3, 0x33, 0x00, 0x00, 0x00, 0xf3, 0x3f, 0x00, 0xff,
   0xff, 0xf3, 0xff, 0xff, 0xf3, 0xff, 0x33, 0x00, 0xf3, 0x33, 0x00, 0x00,
   0x00, 0xf3, 0x3f, 0x00, 0xff, 0xff, 0xf3, 0xff };
