#define pattern_070_width 16
#define pattern_070_height 16
static unsigned char pattern_070_bits[] = {
   0xf0, 0x00, 0xfc, 0x03, 0xfe, 0x07, 0xf8, 0x01, 0xf0, 0x00, 0x63, 0x0c,
   0x67, 0x0e, 0x07, 0x0e, 0x0e, 0x07, 0x0e, 0x67, 0x0c, 0x63, 0x00, 0xf0,
   0x01, 0xf8, 0x07, 0xfe, 0x03, 0xfc, 0x00, 0xf0 };
