#define pattern_056_width 20
#define pattern_056_height 16
static unsigned char pattern_056_bits[] = {
   0xd7, 0xe7, 0x0c, 0x11, 0xb3, 0x09, 0x93, 0xe7, 0x0c, 0x00, 0x02, 0x08,
   0x39, 0x4f, 0x0e, 0x6c, 0x46, 0x0c, 0x39, 0x5f, 0x0f, 0x7c, 0xfe, 0x0f,
   0x39, 0x5f, 0x0f, 0x6c, 0x46, 0x0c, 0x39, 0x4f, 0x0e, 0x00, 0x02, 0x08,
   0x93, 0xe7, 0x0c, 0x11, 0xb3, 0x09, 0xd7, 0xe7, 0x0c, 0xff, 0xf3, 0x09 };
