#define pattern_074_width 10
#define pattern_074_height 14
static unsigned char pattern_074_bits[] = {
   0x1e, 0x00, 0x33, 0x00, 0x61, 0x00, 0xcf, 0x00, 0x9c, 0x00, 0x8e, 0x01,
   0x03, 0x03, 0x78, 0x00, 0xcc, 0x00, 0x86, 0x00, 0xf3, 0x00, 0x39, 0x00,
   0x71, 0x02, 0xc0, 0x03 };
