#define pattern_101_width 36
#define pattern_101_height 36
static unsigned char pattern_101_bits[] = {
   0x1c, 0x44, 0x70, 0x10, 0x01, 0x22, 0xc6, 0x88, 0x08, 0x02, 0x41, 0x38,
   0x04, 0x09, 0x02, 0x49, 0x44, 0x24, 0x11, 0x01, 0x31, 0x82, 0x18, 0xe1,
   0x00, 0x02, 0x82, 0x80, 0x18, 0x03, 0x04, 0x44, 0x40, 0x10, 0x01, 0x88,
   0x28, 0x22, 0xa2, 0x08, 0x10, 0x29, 0x11, 0xa4, 0x04, 0x32, 0x92, 0x98,
   0x48, 0x02, 0x4b, 0x10, 0xa4, 0x41, 0x00, 0x84, 0x11, 0x43, 0x46, 0x0c,
   0x04, 0xee, 0x40, 0xb8, 0x03, 0x84, 0x11, 0x43, 0x46, 0x0c, 0x4b, 0x10,
   0xa4, 0x41, 0x00, 0x32, 0x92, 0x98, 0x48, 0x02, 0x04, 0x29, 0x41, 0xa4,
   0x04, 0x88, 0x28, 0x22, 0xa2, 0x08, 0x10, 0x44, 0x10, 0x10, 0x01, 0x20,
   0x82, 0x08, 0x18, 0x03, 0x46, 0x82, 0xc4, 0xe0, 0x00, 0x49, 0x44, 0x24,
   0x11, 0x01, 0x41, 0x38, 0x04, 0x09, 0x02, 0x22, 0xc6, 0x88, 0x08, 0x02,
   0x1c, 0x44, 0x70, 0x10, 0x01, 0x80, 0x28, 0x02, 0xa2, 0x08, 0x00, 0x29,
   0x01, 0xa4, 0x04, 0x26, 0x92, 0xc8, 0x48, 0x02, 0x69, 0x10, 0x2c, 0x41,
   0x00, 0x90, 0x11, 0x13, 0x46, 0x0c, 0x10, 0xee, 0x10, 0xb8, 0x03, 0x90,
   0x11, 0x13, 0x46, 0x0c, 0x69, 0x10, 0x2c, 0x41, 0x00, 0x26, 0x92, 0xc8,
   0x48, 0x02, 0x00, 0x29, 0x01, 0xa4, 0x04, 0x80, 0x28, 0x02, 0xa2, 0x08 };
