#define pattern_138_width 60
#define pattern_138_height 36
static unsigned char pattern_138_bits[] = {
   0xc0, 0x01, 0x04, 0x04, 0x41, 0x40, 0x00, 0x07, 0x40, 0x00, 0x04, 0x04,
   0x41, 0x40, 0x00, 0x04, 0x80, 0x01, 0x03, 0x18, 0x31, 0x80, 0x01, 0x03,
   0x00, 0xfe, 0x00, 0xe0, 0x0f, 0x00, 0xfe, 0x00, 0x00, 0x00, 0x00, 0x00,
   0x00, 0x00, 0x00, 0x00, 0x00, 0xfe, 0x00, 0xe0, 0x0f, 0x00, 0xfe, 0x00,
   0x80, 0x01, 0x03, 0x18, 0x31, 0x80, 0x01, 0x03, 0x40, 0x00, 0x04, 0x04,
   0x41, 0x40, 0x00, 0x04, 0xc0, 0x01, 0x04, 0x04, 0x41, 0x40, 0x00, 0x07,
   0x44, 0x06, 0x44, 0x04, 0x41, 0x44, 0xc0, 0x04, 0x8e, 0x18, 0xa2, 0x08,
   0x21, 0x8a, 0x30, 0x02, 0x95, 0x60, 0x12, 0x09, 0x21, 0x91, 0x0c, 0x02,
   0x24, 0x81, 0x09, 0x12, 0x91, 0x20, 0x03, 0x09, 0x44, 0x01, 0x05, 0x14,
   0x51, 0x40, 0x01, 0x05, 0x44, 0x82, 0x0c, 0x24, 0x49, 0x60, 0x82, 0x04,
   0x84, 0x44, 0x32, 0x48, 0x25, 0x98, 0x44, 0x02, 0x84, 0x28, 0xc2, 0x88,
   0x23, 0x86, 0x28, 0x02, 0x04, 0x11, 0x01, 0x13, 0x91, 0x01, 0x11, 0x01,
   0x04, 0x01, 0x01, 0x1c, 0x70, 0x00, 0x01, 0x01, 0x04, 0x01, 0x01, 0x10,
   0x10, 0x00, 0x01, 0x01, 0xc4, 0x00, 0x06, 0x0c, 0x60, 0xc0, 0x00, 0x06,
   0x3f, 0x00, 0xf8, 0x03, 0x80, 0x3f, 0x00, 0x08, 0x00, 0x00, 0x00, 0x00,
   0x00, 0x00, 0x00, 0x00, 0x3f, 0x00, 0xf8, 0x03, 0x80, 0x3f, 0x00, 0x08,
   0xc4, 0x00, 0x06, 0x0c, 0x60, 0xc0, 0x00, 0x06, 0x04, 0x01, 0x01, 0x10,
   0x10, 0x00, 0x01, 0x01, 0x04, 0x01, 0x01, 0x1c, 0x70, 0x00, 0x01, 0x01,
   0x04, 0x11, 0x01, 0x13, 0x91, 0x01, 0x11, 0x01, 0x84, 0x28, 0xc2, 0x88,
   0x23, 0x86, 0x28, 0x02, 0x84, 0x44, 0x32, 0x48, 0x25, 0x98, 0x44, 0x02,
   0x44, 0x82, 0x0c, 0x24, 0x49, 0x60, 0x82, 0x04, 0x44, 0x01, 0x05, 0x14,
   0x51, 0x40, 0x01, 0x05, 0x24, 0x81, 0x09, 0x12, 0x91, 0x20, 0x03, 0x09,
   0x95, 0x60, 0x12, 0x09, 0x21, 0x91, 0x0c, 0x02, 0x8e, 0x18, 0xa2, 0x08,
   0x21, 0x8a, 0x30, 0x02, 0x44, 0x06, 0x44, 0x04, 0x41, 0x44, 0xc0, 0x04 };
