#define pattern_080_width 21
#define pattern_080_height 16
static unsigned char pattern_080_bits[] = {
   0x83, 0xe1, 0x01, 0xef, 0x11, 0x02, 0xc7, 0x1d, 0x0e, 0x11, 0x39, 0x07,
   0x93, 0xe1, 0x01, 0xfe, 0xe0, 0x01, 0xc7, 0x1f, 0x1e, 0xfe, 0xe0, 0x01,
   0x93, 0xe1, 0x01, 0x11, 0x39, 0x07, 0xc7, 0x1d, 0x0e, 0xef, 0x11, 0x02,
   0x83, 0xe1, 0x01, 0xff, 0xff, 0x1f, 0x00, 0x00, 0x00, 0xff, 0xff, 0x1f };
