#define maze001_width 192
#define maze001_height 192
static unsigned char maze001_bits[] = {
   0x08, 0x88, 0x00, 0x08, 0x88, 0x80, 0x00, 0x88, 0x08, 0x88, 0x00, 0x08,
   0x88, 0x80, 0x00, 0x88, 0x08, 0x88, 0x00, 0x08, 0x88, 0x80, 0x00, 0x88,
   0x08, 0x88, 0x00, 0x08, 0x88, 0x80, 0x00, 0x88, 0x08, 0x88, 0x00, 0x08,
   0x88, 0x80, 0x00, 0x88, 0x08, 0x88, 0x00, 0x08, 0x88, 0x80, 0x00, 0x88,
   0x08, 0x88, 0x00, 0x08, 0x88, 0x80, 0x00, 0x88, 0x08, 0x88, 0x00, 0x08,
   0x88, 0x80, 0x00, 0x88, 0x08, 0x88, 0x00, 0x08, 0x88, 0x80, 0x00, 0x88,
   0x8f, 0x88, 0xff, 0x8f, 0xf8, 0x8f, 0x8f, 0x8f, 0x8f, 0x88, 0xff, 0x8f,
   0xf8, 0x8f, 0x8f, 0x8f, 0x8f, 0x88, 0xff, 0x8f, 0xf8, 0x8f, 0x8f, 0x8f,
   0x80, 0x08, 0x00, 0x88, 0x00, 0x80, 0x00, 0x80, 0x80, 0x08, 0x00, 0x88,
   0x00, 0x80, 0x00, 0x80, 0x80, 0x08, 0x00, 0x88, 0x00, 0x80, 0x00, 0x80,
   0x80, 0x08, 0x00, 0x88, 0x00, 0x80, 0x00, 0x80, 0x80, 0x08, 0x00, 0x88,
   0x00, 0x80, 0x00, 0x80, 0x80, 0x08, 0x00, 0x88, 0x00, 0x80, 0x00, 0x80,
   0x80, 0x08, 0x00, 0x88, 0x00, 0x80, 0x00, 0x80, 0x80, 0x08, 0x00, 0x88,
   0x00, 0x80, 0x00, 0x80, 0x80, 0x08, 0x00, 0x88, 0x00, 0x80, 0x00, 0x80,
   0xf8, 0x88, 0xf8, 0x88, 0xf8, 0xff, 0xf8, 0xff, 0xf8, 0x88, 0xf8, 0x88,
   0xf8, 0xff, 0xf8, 0xff, 0xf8, 0x88, 0xf8, 0x88, 0xf8, 0xff, 0xf8, 0xff,
   0x08, 0x88, 0x80, 0x80, 0x88, 0x80, 0x08, 0x80, 0x08, 0x88, 0x80, 0x80,
   0x88, 0x80, 0x08, 0x80, 0x08, 0x88, 0x80, 0x80, 0x88, 0x80, 0x08, 0x80,
   0x08, 0x88, 0x80, 0x80, 0x88, 0x80, 0x08, 0x80, 0x08, 0x88, 0x80, 0x80,
   0x88, 0x80, 0x08, 0x80, 0x08, 0x88, 0x80, 0x80, 0x88, 0x80, 0x08, 0x80,
   0x08, 0x88, 0x80, 0x80, 0x88, 0x80, 0x08, 0x80, 0x08, 0x88, 0x80, 0x80,
   0x88, 0x80, 0x08, 0x80, 0x08, 0x88, 0x80, 0x80, 0x88, 0x80, 0x08, 0x80,
   0xf8, 0xff, 0xf8, 0xff, 0x8f, 0x88, 0x88, 0x8f, 0xf8, 0xff, 0xf8, 0xff,
   0x8f, 0x88, 0x88, 0x8f, 0xf8, 0xff, 0xf8, 0xff, 0x8f, 0x88, 0x88, 0x8f,
   0x00, 0x00, 0x08, 0x00, 0x88, 0x88, 0x88, 0x80, 0x00, 0x00, 0x08, 0x00,
   0x88, 0x88, 0x88, 0x80, 0x00, 0x00, 0x08, 0x00, 0x88, 0x88, 0x88, 0x80,
   0x00, 0x00, 0x08, 0x00, 0x88, 0x88, 0x88, 0x80, 0x00, 0x00, 0x08, 0x00,
   0x88, 0x88, 0x88, 0x80, 0x00, 0x00, 0x08, 0x00, 0x88, 0x88, 0x88, 0x80,
   0x00, 0x00, 0x08, 0x00, 0x88, 0x88, 0x88, 0x80, 0x00, 0x00, 0x08, 0x00,
   0x88, 0x88, 0x88, 0x80, 0x00, 0x00, 0x08, 0x00, 0x88, 0x88, 0x88, 0x80,
   0xff, 0xff, 0x88, 0xff, 0x88, 0x88, 0xf8, 0xf8, 0xff, 0xff, 0x88, 0xff,
   0x88, 0x88, 0xf8, 0xf8, 0xff, 0xff, 0x88, 0xff, 0x88, 0x88, 0xf8, 0xf8,
   0x08, 0x80, 0x80, 0x00, 0x08, 0x88, 0x08, 0x08, 0x08, 0x80, 0x80, 0x00,
   0x08, 0x88, 0x08, 0x08, 0x08, 0x80, 0x80, 0x00, 0x08, 0x88, 0x08, 0x08,
   0x08, 0x80, 0x80, 0x00, 0x08, 0x88, 0x08, 0x08, 0x08, 0x80, 0x80, 0x00,
   0x08, 0x88, 0x08, 0x08, 0x08, 0x80, 0x80, 0x00, 0x08, 0x88, 0x08, 0x08,
   0x08, 0x80, 0x80, 0x00, 0x08, 0x88, 0x08, 0x08, 0x08, 0x80, 0x80, 0x00,
   0x08, 0x88, 0x08, 0x08, 0x08, 0x80, 0x80, 0x00, 0x08, 0x88, 0x08, 0x08,
   0x88, 0x8f, 0xf8, 0x8f, 0x8f, 0x8f, 0x88, 0x8f, 0x88, 0x8f, 0xf8, 0x8f,
   0x8f, 0x8f, 0x88, 0x8f, 0x88, 0x8f, 0xf8, 0x8f, 0x8f, 0x8f, 0x88, 0x8f,
   0x88, 0x80, 0x08, 0x08, 0x08, 0x08, 0x80, 0x80, 0x88, 0x80, 0x08, 0x08,
   0x08, 0x08, 0x80, 0x80, 0x88, 0x80, 0x08, 0x08, 0x08, 0x08, 0x80, 0x80,
   0x88, 0x80, 0x08, 0x08, 0x08, 0x08, 0x80, 0x80, 0x88, 0x80, 0x08, 0x08,
   0x08, 0x08, 0x80, 0x80, 0x88, 0x80, 0x08, 0x08, 0x08, 0x08, 0x80, 0x80,
   0x88, 0x80, 0x08, 0x08, 0x08, 0x08, 0x80, 0x80, 0x88, 0x80, 0x08, 0x08,
   0x08, 0x08, 0x80, 0x80, 0x88, 0x80, 0x08, 0x08, 0x08, 0x08, 0x80, 0x80,
   0x8f, 0xf8, 0x88, 0xf8, 0xf8, 0xf8, 0xff, 0xf8, 0x8f, 0xf8, 0x88, 0xf8,
   0xf8, 0xf8, 0xff, 0xf8, 0x8f, 0xf8, 0x88, 0xf8, 0xf8, 0xf8, 0xff, 0xf8,
   0x80, 0x80, 0x88, 0x80, 0x80, 0x80, 0x00, 0x88, 0x80, 0x80, 0x88, 0x80,
   0x80, 0x80, 0x00, 0x88, 0x80, 0x80, 0x88, 0x80, 0x80, 0x80, 0x00, 0x88,
   0x80, 0x80, 0x88, 0x80, 0x80, 0x80, 0x00, 0x88, 0x80, 0x80, 0x88, 0x80,
   0x80, 0x80, 0x00, 0x88, 0x80, 0x80, 0x88, 0x80, 0x80, 0x80, 0x00, 0x88,
   0x80, 0x80, 0x88, 0x80, 0x80, 0x80, 0x00, 0x88, 0x80, 0x80, 0x88, 0x80,
   0x80, 0x80, 0x00, 0x88, 0x80, 0x80, 0x88, 0x80, 0x80, 0x80, 0x00, 0x88,
   0xf8, 0x8f, 0x88, 0x8f, 0x88, 0x8f, 0xf8, 0x88, 0xf8, 0x8f, 0x88, 0x8f,
   0x88, 0x8f, 0xf8, 0x88, 0xf8, 0x8f, 0x88, 0x8f, 0x88, 0x8f, 0xf8, 0x88,
   0x00, 0x88, 0x88, 0x80, 0x88, 0x80, 0x08, 0x08, 0x00, 0x88, 0x88, 0x80,
   0x88, 0x80, 0x08, 0x08, 0x00, 0x88, 0x88, 0x80, 0x88, 0x80, 0x08, 0x08,
   0x00, 0x88, 0x88, 0x80, 0x88, 0x80, 0x08, 0x08, 0x00, 0x88, 0x88, 0x80,
   0x88, 0x80, 0x08, 0x08, 0x00, 0x88, 0x88, 0x80, 0x88, 0x80, 0x08, 0x08,
   0x00, 0x88, 0x88, 0x80, 0x88, 0x80, 0x08, 0x08, 0x00, 0x88, 0x88, 0x80,
   0x88, 0x80, 0x08, 0x08, 0x00, 0x88, 0x88, 0x80, 0x88, 0x80, 0x08, 0x08,
   0xff, 0x8f, 0x88, 0xf8, 0x88, 0xff, 0xf8, 0xff, 0xff, 0x8f, 0x88, 0xf8,
   0x88, 0xff, 0xf8, 0xff, 0xff, 0x8f, 0x88, 0xf8, 0x88, 0xff, 0xf8, 0xff,
   0x80, 0x80, 0x88, 0x80, 0x08, 0x80, 0x08, 0x00, 0x80, 0x80, 0x88, 0x80,
   0x08, 0x80, 0x08, 0x00, 0x80, 0x80, 0x88, 0x80, 0x08, 0x80, 0x08, 0x00,
   0x80, 0x80, 0x88, 0x80, 0x08, 0x80, 0x08, 0x00, 0x80, 0x80, 0x88, 0x80,
   0x08, 0x80, 0x08, 0x00, 0x80, 0x80, 0x88, 0x80, 0x08, 0x80, 0x08, 0x00,
   0x80, 0x80, 0x88, 0x80, 0x08, 0x80, 0x08, 0x00, 0x80, 0x80, 0x88, 0x80,
   0x08, 0x80, 0x08, 0x00, 0x80, 0x80, 0x88, 0x80, 0x08, 0x80, 0x08, 0x00,
   0x88, 0xf8, 0x88, 0xff, 0xf8, 0xf8, 0x88, 0xff, 0x88, 0xf8, 0x88, 0xff,
   0xf8, 0xf8, 0x88, 0xff, 0x88, 0xf8, 0x88, 0xff, 0xf8, 0xf8, 0x88, 0xff,
   0x88, 0x80, 0x08, 0x80, 0x08, 0x08, 0x08, 0x80, 0x88, 0x80, 0x08, 0x80,
   0x08, 0x08, 0x08, 0x80, 0x88, 0x80, 0x08, 0x80, 0x08, 0x08, 0x08, 0x80,
   0x88, 0x80, 0x08, 0x80, 0x08, 0x08, 0x08, 0x80, 0x88, 0x80, 0x08, 0x80,
   0x08, 0x08, 0x08, 0x80, 0x88, 0x80, 0x08, 0x80, 0x08, 0x08, 0x08, 0x80,
   0x88, 0x80, 0x08, 0x80, 0x08, 0x08, 0x08, 0x80, 0x88, 0x80, 0x08, 0x80,
   0x08, 0x08, 0x08, 0x80, 0x88, 0x80, 0x08, 0x80, 0x08, 0x08, 0x08, 0x80,
   0x88, 0x8f, 0xf8, 0x8f, 0xf8, 0x8f, 0xff, 0xff, 0x88, 0x8f, 0xf8, 0x8f,
   0xf8, 0x8f, 0xff, 0xff, 0x88, 0x8f, 0xf8, 0x8f, 0xf8, 0x8f, 0xff, 0xff,
   0x08, 0x80, 0x08, 0x80, 0x08, 0x00, 0x00, 0x80, 0x08, 0x80, 0x08, 0x80,
   0x08, 0x00, 0x00, 0x80, 0x08, 0x80, 0x08, 0x80, 0x08, 0x00, 0x00, 0x80,
   0x08, 0x80, 0x08, 0x80, 0x08, 0x00, 0x00, 0x80, 0x08, 0x80, 0x08, 0x80,
   0x08, 0x00, 0x00, 0x80, 0x08, 0x80, 0x08, 0x80, 0x08, 0x00, 0x00, 0x80,
   0x08, 0x80, 0x08, 0x80, 0x08, 0x00, 0x00, 0x80, 0x08, 0x80, 0x08, 0x80,
   0x08, 0x00, 0x00, 0x80, 0x08, 0x80, 0x08, 0x80, 0x08, 0x00, 0x00, 0x80,
   0xf8, 0xff, 0x88, 0xf8, 0x88, 0xff, 0xff, 0x8f, 0xf8, 0xff, 0x88, 0xf8,
   0x88, 0xff, 0xff, 0x8f, 0xf8, 0xff, 0x88, 0xf8, 0x88, 0xff, 0xff, 0x8f,
   0x00, 0x00, 0x88, 0x08, 0x88, 0x08, 0x00, 0x88, 0x00, 0x00, 0x88, 0x08,
   0x88, 0x08, 0x00, 0x88, 0x00, 0x00, 0x88, 0x08, 0x88, 0x08, 0x00, 0x88,
   0x00, 0x00, 0x88, 0x08, 0x88, 0x08, 0x00, 0x88, 0x00, 0x00, 0x88, 0x08,
   0x88, 0x08, 0x00, 0x88, 0x00, 0x00, 0x88, 0x08, 0x88, 0x08, 0x00, 0x88,
   0x00, 0x00, 0x88, 0x08, 0x88, 0x08, 0x00, 0x88, 0x00, 0x00, 0x88, 0x08,
   0x88, 0x08, 0x00, 0x88, 0x00, 0x00, 0x88, 0x08, 0x88, 0x08, 0x00, 0x88,
   0xff, 0xff, 0x8f, 0x88, 0x8f, 0x88, 0xff, 0x88, 0xff, 0xff, 0x8f, 0x88,
   0x8f, 0x88, 0xff, 0x88, 0xff, 0xff, 0x8f, 0x88, 0x8f, 0x88, 0xff, 0x88,
   0x08, 0x00, 0x88, 0x88, 0x80, 0x80, 0x80, 0x80, 0x08, 0x00, 0x88, 0x88,
   0x80, 0x80, 0x80, 0x80, 0x08, 0x00, 0x88, 0x88, 0x80, 0x80, 0x80, 0x80,
   0x08, 0x00, 0x88, 0x88, 0x80, 0x80, 0x80, 0x80, 0x08, 0x00, 0x88, 0x88,
   0x80, 0x80, 0x80, 0x80, 0x08, 0x00, 0x88, 0x88, 0x80, 0x80, 0x80, 0x80,
   0x08, 0x00, 0x88, 0x88, 0x80, 0x80, 0x80, 0x80, 0x08, 0x00, 0x88, 0x88,
   0x80, 0x80, 0x80, 0x80, 0x08, 0x00, 0x88, 0x88, 0x80, 0x80, 0x80, 0x80,
   0x88, 0xff, 0x88, 0x88, 0xf8, 0xff, 0x88, 0xff, 0x88, 0xff, 0x88, 0x88,
   0xf8, 0xff, 0x88, 0xff, 0x88, 0xff, 0x88, 0x88, 0xf8, 0xff, 0x88, 0xff,
   0x80, 0x08, 0x88, 0x80, 0x80, 0x80, 0x08, 0x00, 0x80, 0x08, 0x88, 0x80,
   0x80, 0x80, 0x08, 0x00, 0x80, 0x08, 0x88, 0x80, 0x80, 0x80, 0x08, 0x00,
   0x80, 0x08, 0x88, 0x80, 0x80, 0x80, 0x08, 0x00, 0x80, 0x08, 0x88, 0x80,
   0x80, 0x80, 0x08, 0x00, 0x80, 0x08, 0x88, 0x80, 0x80, 0x80, 0x08, 0x00,
   0x80, 0x08, 0x88, 0x80, 0x80, 0x80, 0x08, 0x00, 0x80, 0x08, 0x88, 0x80,
   0x80, 0x80, 0x08, 0x00, 0x80, 0x08, 0x88, 0x80, 0x80, 0x80, 0x08, 0x00,
   0xf8, 0x88, 0xff, 0xff, 0x8f, 0x88, 0xf8, 0xff, 0xf8, 0x88, 0xff, 0xff,
   0x8f, 0x88, 0xf8, 0xff, 0xf8, 0x88, 0xff, 0xff, 0x8f, 0x88, 0xf8, 0xff,
   0x08, 0x88, 0x00, 0x00, 0x08, 0x08, 0x80, 0x00, 0x08, 0x88, 0x00, 0x00,
   0x08, 0x08, 0x80, 0x00, 0x08, 0x88, 0x00, 0x00, 0x08, 0x08, 0x80, 0x00,
   0x08, 0x88, 0x00, 0x00, 0x08, 0x08, 0x80, 0x00, 0x08, 0x88, 0x00, 0x00,
   0x08, 0x08, 0x80, 0x00, 0x08, 0x88, 0x00, 0x00, 0x08, 0x08, 0x80, 0x00,
   0x08, 0x88, 0x00, 0x00, 0x08, 0x08, 0x80, 0x00, 0x08, 0x88, 0x00, 0x00,
   0x08, 0x08, 0x80, 0x00, 0x08, 0x88, 0x00, 0x00, 0x08, 0x08, 0x80, 0x00,
   0x8f, 0x8f, 0xf8, 0xf8, 0xff, 0xff, 0x8f, 0xff, 0x8f, 0x8f, 0xf8, 0xf8,
   0xff, 0xff, 0x8f, 0xff, 0x8f, 0x8f, 0xf8, 0xf8, 0xff, 0xff, 0x8f, 0xff,
   0x08, 0x80, 0x88, 0x00, 0x08, 0x00, 0x08, 0x08, 0x08, 0x80, 0x88, 0x00,
   0x08, 0x00, 0x08, 0x08, 0x08, 0x80, 0x88, 0x00, 0x08, 0x00, 0x08, 0x08,
   0x08, 0x80, 0x88, 0x00, 0x08, 0x00, 0x08, 0x08, 0x08, 0x80, 0x88, 0x00,
   0x08, 0x00, 0x08, 0x08, 0x08, 0x80, 0x88, 0x00, 0x08, 0x00, 0x08, 0x08,
   0x08, 0x80, 0x88, 0x00, 0x08, 0x00, 0x08, 0x08, 0x08, 0x80, 0x88, 0x00,
   0x08, 0x00, 0x08, 0x08, 0x08, 0x80, 0x88, 0x00, 0x08, 0x00, 0x08, 0x08,
   0xf8, 0xff, 0x88, 0xff, 0x88, 0xf8, 0xf8, 0x88, 0xf8, 0xff, 0x88, 0xff,
   0x88, 0xf8, 0xf8, 0x88, 0xf8, 0xff, 0x88, 0xff, 0x88, 0xf8, 0xf8, 0x88,
   0x08, 0x88, 0x00, 0x08, 0x88, 0x80, 0x00, 0x88, 0x08, 0x88, 0x00, 0x08,
   0x88, 0x80, 0x00, 0x88, 0x08, 0x88, 0x00, 0x08, 0x88, 0x80, 0x00, 0x88,
   0x08, 0x88, 0x00, 0x08, 0x88, 0x80, 0x00, 0x88, 0x08, 0x88, 0x00, 0x08,
   0x88, 0x80, 0x00, 0x88, 0x08, 0x88, 0x00, 0x08, 0x88, 0x80, 0x00, 0x88,
   0x08, 0x88, 0x00, 0x08, 0x88, 0x80, 0x00, 0x88, 0x08, 0x88, 0x00, 0x08,
   0x88, 0x80, 0x00, 0x88, 0x08, 0x88, 0x00, 0x08, 0x88, 0x80, 0x00, 0x88,
   0x8f, 0x88, 0xff, 0x8f, 0xf8, 0x8f, 0x8f, 0x8f, 0x8f, 0x88, 0xff, 0x8f,
   0xf8, 0x8f, 0x8f, 0x8f, 0x8f, 0x88, 0xff, 0x8f, 0xf8, 0x8f, 0x8f, 0x8f,
   0x80, 0x08, 0x00, 0x88, 0x00, 0x80, 0x00, 0x80, 0x80, 0x08, 0x00, 0x88,
   0x00, 0x80, 0x00, 0x80, 0x80, 0x08, 0x00, 0x88, 0x00, 0x80, 0x00, 0x80,
   0x80, 0x08, 0x00, 0x88, 0x00, 0x80, 0x00, 0x80, 0x80, 0x08, 0x00, 0x88,
   0x00, 0x80, 0x00, 0x80, 0x80, 0x08, 0x00, 0x88, 0x00, 0x80, 0x00, 0x80,
   0x80, 0x08, 0x00, 0x88, 0x00, 0x80, 0x00, 0x80, 0x80, 0x08, 0x00, 0x88,
   0x00, 0x80, 0x00, 0x80, 0x80, 0x08, 0x00, 0x88, 0x00, 0x80, 0x00, 0x80,
   0xf8, 0x88, 0xf8, 0x88, 0xf8, 0xff, 0xf8, 0xff, 0xf8, 0x88, 0xf8, 0x88,
   0xf8, 0xff, 0xf8, 0xff, 0xf8, 0x88, 0xf8, 0x88, 0xf8, 0xff, 0xf8, 0xff,
   0x08, 0x88, 0x80, 0x80, 0x88, 0x80, 0x08, 0x80, 0x08, 0x88, 0x80, 0x80,
   0x88, 0x80, 0x08, 0x80, 0x08, 0x88, 0x80, 0x80, 0x88, 0x80, 0x08, 0x80,
   0x08, 0x88, 0x80, 0x80, 0x88, 0x80, 0x08, 0x80, 0x08, 0x88, 0x80, 0x80,
   0x88, 0x80, 0x08, 0x80, 0x08, 0x88, 0x80, 0x80, 0x88, 0x80, 0x08, 0x80,
   0x08, 0x88, 0x80, 0x80, 0x88, 0x80, 0x08, 0x80, 0x08, 0x88, 0x80, 0x80,
   0x88, 0x80, 0x08, 0x80, 0x08, 0x88, 0x80, 0x80, 0x88, 0x80, 0x08, 0x80,
   0xf8, 0xff, 0xf8, 0xff, 0x8f, 0x88, 0x88, 0x8f, 0xf8, 0xff, 0xf8, 0xff,
   0x8f, 0x88, 0x88, 0x8f, 0xf8, 0xff, 0xf8, 0xff, 0x8f, 0x88, 0x88, 0x8f,
   0x00, 0x00, 0x08, 0x00, 0x88, 0x88, 0x88, 0x80, 0x00, 0x00, 0x08, 0x00,
   0x88, 0x88, 0x88, 0x80, 0x00, 0x00, 0x08, 0x00, 0x88, 0x88, 0x88, 0x80,
   0x00, 0x00, 0x08, 0x00, 0x88, 0x88, 0x88, 0x80, 0x00, 0x00, 0x08, 0x00,
   0x88, 0x88, 0x88, 0x80, 0x00, 0x00, 0x08, 0x00, 0x88, 0x88, 0x88, 0x80,
   0x00, 0x00, 0x08, 0x00, 0x88, 0x88, 0x88, 0x80, 0x00, 0x00, 0x08, 0x00,
   0x88, 0x88, 0x88, 0x80, 0x00, 0x00, 0x08, 0x00, 0x88, 0x88, 0x88, 0x80,
   0xff, 0xff, 0x88, 0xff, 0x88, 0x88, 0xf8, 0xf8, 0xff, 0xff, 0x88, 0xff,
   0x88, 0x88, 0xf8, 0xf8, 0xff, 0xff, 0x88, 0xff, 0x88, 0x88, 0xf8, 0xf8,
   0x08, 0x80, 0x80, 0x00, 0x08, 0x88, 0x08, 0x08, 0x08, 0x80, 0x80, 0x00,
   0x08, 0x88, 0x08, 0x08, 0x08, 0x80, 0x80, 0x00, 0x08, 0x88, 0x08, 0x08,
   0x08, 0x80, 0x80, 0x00, 0x08, 0x88, 0x08, 0x08, 0x08, 0x80, 0x80, 0x00,
   0x08, 0x88, 0x08, 0x08, 0x08, 0x80, 0x80, 0x00, 0x08, 0x88, 0x08, 0x08,
   0x08, 0x80, 0x80, 0x00, 0x08, 0x88, 0x08, 0x08, 0x08, 0x80, 0x80, 0x00,
   0x08, 0x88, 0x08, 0x08, 0x08, 0x80, 0x80, 0x00, 0x08, 0x88, 0x08, 0x08,
   0x88, 0x8f, 0xf8, 0x8f, 0x8f, 0x8f, 0x88, 0x8f, 0x88, 0x8f, 0xf8, 0x8f,
   0x8f, 0x8f, 0x88, 0x8f, 0x88, 0x8f, 0xf8, 0x8f, 0x8f, 0x8f, 0x88, 0x8f,
   0x88, 0x80, 0x08, 0x08, 0x08, 0x08, 0x80, 0x80, 0x88, 0x80, 0x08, 0x08,
   0x08, 0x08, 0x80, 0x80, 0x88, 0x80, 0x08, 0x08, 0x08, 0x08, 0x80, 0x80,
   0x88, 0x80, 0x08, 0x08, 0x08, 0x08, 0x80, 0x80, 0x88, 0x80, 0x08, 0x08,
   0x08, 0x08, 0x80, 0x80, 0x88, 0x80, 0x08, 0x08, 0x08, 0x08, 0x80, 0x80,
   0x88, 0x80, 0x08, 0x08, 0x08, 0x08, 0x80, 0x80, 0x88, 0x80, 0x08, 0x08,
   0x08, 0x08, 0x80, 0x80, 0x88, 0x80, 0x08, 0x08, 0x08, 0x08, 0x80, 0x80,
   0x8f, 0xf8, 0x88, 0xf8, 0xf8, 0xf8, 0xff, 0xf8, 0x8f, 0xf8, 0x88, 0xf8,
   0xf8, 0xf8, 0xff, 0xf8, 0x8f, 0xf8, 0x88, 0xf8, 0xf8, 0xf8, 0xff, 0xf8,
   0x80, 0x80, 0x88, 0x80, 0x80, 0x80, 0x00, 0x88, 0x80, 0x80, 0x88, 0x80,
   0x80, 0x80, 0x00, 0x88, 0x80, 0x80, 0x88, 0x80, 0x80, 0x80, 0x00, 0x88,
   0x80, 0x80, 0x88, 0x80, 0x80, 0x80, 0x00, 0x88, 0x80, 0x80, 0x88, 0x80,
   0x80, 0x80, 0x00, 0x88, 0x80, 0x80, 0x88, 0x80, 0x80, 0x80, 0x00, 0x88,
   0x80, 0x80, 0x88, 0x80, 0x80, 0x80, 0x00, 0x88, 0x80, 0x80, 0x88, 0x80,
   0x80, 0x80, 0x00, 0x88, 0x80, 0x80, 0x88, 0x80, 0x80, 0x80, 0x00, 0x88,
   0xf8, 0x8f, 0x88, 0x8f, 0x88, 0x8f, 0xf8, 0x88, 0xf8, 0x8f, 0x88, 0x8f,
   0x88, 0x8f, 0xf8, 0x88, 0xf8, 0x8f, 0x88, 0x8f, 0x88, 0x8f, 0xf8, 0x88,
   0x00, 0x88, 0x88, 0x80, 0x88, 0x80, 0x08, 0x08, 0x00, 0x88, 0x88, 0x80,
   0x88, 0x80, 0x08, 0x08, 0x00, 0x88, 0x88, 0x80, 0x88, 0x80, 0x08, 0x08,
   0x00, 0x88, 0x88, 0x80, 0x88, 0x80, 0x08, 0x08, 0x00, 0x88, 0x88, 0x80,
   0x88, 0x80, 0x08, 0x08, 0x00, 0x88, 0x88, 0x80, 0x88, 0x80, 0x08, 0x08,
   0x00, 0x88, 0x88, 0x80, 0x88, 0x80, 0x08, 0x08, 0x00, 0x88, 0x88, 0x80,
   0x88, 0x80, 0x08, 0x08, 0x00, 0x88, 0x88, 0x80, 0x88, 0x80, 0x08, 0x08,
   0xff, 0x8f, 0x88, 0xf8, 0x88, 0xff, 0xf8, 0xff, 0xff, 0x8f, 0x88, 0xf8,
   0x88, 0xff, 0xf8, 0xff, 0xff, 0x8f, 0x88, 0xf8, 0x88, 0xff, 0xf8, 0xff,
   0x80, 0x80, 0x88, 0x80, 0x08, 0x80, 0x08, 0x00, 0x80, 0x80, 0x88, 0x80,
   0x08, 0x80, 0x08, 0x00, 0x80, 0x80, 0x88, 0x80, 0x08, 0x80, 0x08, 0x00,
   0x80, 0x80, 0x88, 0x80, 0x08, 0x80, 0x08, 0x00, 0x80, 0x80, 0x88, 0x80,
   0x08, 0x80, 0x08, 0x00, 0x80, 0x80, 0x88, 0x80, 0x08, 0x80, 0x08, 0x00,
   0x80, 0x80, 0x88, 0x80, 0x08, 0x80, 0x08, 0x00, 0x80, 0x80, 0x88, 0x80,
   0x08, 0x80, 0x08, 0x00, 0x80, 0x80, 0x88, 0x80, 0x08, 0x80, 0x08, 0x00,
   0x88, 0xf8, 0x88, 0xff, 0xf8, 0xf8, 0x88, 0xff, 0x88, 0xf8, 0x88, 0xff,
   0xf8, 0xf8, 0x88, 0xff, 0x88, 0xf8, 0x88, 0xff, 0xf8, 0xf8, 0x88, 0xff,
   0x88, 0x80, 0x08, 0x80, 0x08, 0x08, 0x08, 0x80, 0x88, 0x80, 0x08, 0x80,
   0x08, 0x08, 0x08, 0x80, 0x88, 0x80, 0x08, 0x80, 0x08, 0x08, 0x08, 0x80,
   0x88, 0x80, 0x08, 0x80, 0x08, 0x08, 0x08, 0x80, 0x88, 0x80, 0x08, 0x80,
   0x08, 0x08, 0x08, 0x80, 0x88, 0x80, 0x08, 0x80, 0x08, 0x08, 0x08, 0x80,
   0x88, 0x80, 0x08, 0x80, 0x08, 0x08, 0x08, 0x80, 0x88, 0x80, 0x08, 0x80,
   0x08, 0x08, 0x08, 0x80, 0x88, 0x80, 0x08, 0x80, 0x08, 0x08, 0x08, 0x80,
   0x88, 0x8f, 0xf8, 0x8f, 0xf8, 0x8f, 0xff, 0xff, 0x88, 0x8f, 0xf8, 0x8f,
   0xf8, 0x8f, 0xff, 0xff, 0x88, 0x8f, 0xf8, 0x8f, 0xf8, 0x8f, 0xff, 0xff,
   0x08, 0x80, 0x08, 0x80, 0x08, 0x00, 0x00, 0x80, 0x08, 0x80, 0x08, 0x80,
   0x08, 0x00, 0x00, 0x80, 0x08, 0x80, 0x08, 0x80, 0x08, 0x00, 0x00, 0x80,
   0x08, 0x80, 0x08, 0x80, 0x08, 0x00, 0x00, 0x80, 0x08, 0x80, 0x08, 0x80,
   0x08, 0x00, 0x00, 0x80, 0x08, 0x80, 0x08, 0x80, 0x08, 0x00, 0x00, 0x80,
   0x08, 0x80, 0x08, 0x80, 0x08, 0x00, 0x00, 0x80, 0x08, 0x80, 0x08, 0x80,
   0x08, 0x00, 0x00, 0x80, 0x08, 0x80, 0x08, 0x80, 0x08, 0x00, 0x00, 0x80,
   0xf8, 0xff, 0x88, 0xf8, 0x88, 0xff, 0xff, 0x8f, 0xf8, 0xff, 0x88, 0xf8,
   0x88, 0xff, 0xff, 0x8f, 0xf8, 0xff, 0x88, 0xf8, 0x88, 0xff, 0xff, 0x8f,
   0x00, 0x00, 0x88, 0x08, 0x88, 0x08, 0x00, 0x88, 0x00, 0x00, 0x88, 0x08,
   0x88, 0x08, 0x00, 0x88, 0x00, 0x00, 0x88, 0x08, 0x88, 0x08, 0x00, 0x88,
   0x00, 0x00, 0x88, 0x08, 0x88, 0x08, 0x00, 0x88, 0x00, 0x00, 0x88, 0x08,
   0x88, 0x08, 0x00, 0x88, 0x00, 0x00, 0x88, 0x08, 0x88, 0x08, 0x00, 0x88,
   0x00, 0x00, 0x88, 0x08, 0x88, 0x08, 0x00, 0x88, 0x00, 0x00, 0x88, 0x08,
   0x88, 0x08, 0x00, 0x88, 0x00, 0x00, 0x88, 0x08, 0x88, 0x08, 0x00, 0x88,
   0xff, 0xff, 0x8f, 0x88, 0x8f, 0x88, 0xff, 0x88, 0xff, 0xff, 0x8f, 0x88,
   0x8f, 0x88, 0xff, 0x88, 0xff, 0xff, 0x8f, 0x88, 0x8f, 0x88, 0xff, 0x88,
   0x08, 0x00, 0x88, 0x88, 0x80, 0x80, 0x80, 0x80, 0x08, 0x00, 0x88, 0x88,
   0x80, 0x80, 0x80, 0x80, 0x08, 0x00, 0x88, 0x88, 0x80, 0x80, 0x80, 0x80,
   0x08, 0x00, 0x88, 0x88, 0x80, 0x80, 0x80, 0x80, 0x08, 0x00, 0x88, 0x88,
   0x80, 0x80, 0x80, 0x80, 0x08, 0x00, 0x88, 0x88, 0x80, 0x80, 0x80, 0x80,
   0x08, 0x00, 0x88, 0x88, 0x80, 0x80, 0x80, 0x80, 0x08, 0x00, 0x88, 0x88,
   0x80, 0x80, 0x80, 0x80, 0x08, 0x00, 0x88, 0x88, 0x80, 0x80, 0x80, 0x80,
   0x88, 0xff, 0x88, 0x88, 0xf8, 0xff, 0x88, 0xff, 0x88, 0xff, 0x88, 0x88,
   0xf8, 0xff, 0x88, 0xff, 0x88, 0xff, 0x88, 0x88, 0xf8, 0xff, 0x88, 0xff,
   0x80, 0x08, 0x88, 0x80, 0x80, 0x80, 0x08, 0x00, 0x80, 0x08, 0x88, 0x80,
   0x80, 0x80, 0x08, 0x00, 0x80, 0x08, 0x88, 0x80, 0x80, 0x80, 0x08, 0x00,
   0x80, 0x08, 0x88, 0x80, 0x80, 0x80, 0x08, 0x00, 0x80, 0x08, 0x88, 0x80,
   0x80, 0x80, 0x08, 0x00, 0x80, 0x08, 0x88, 0x80, 0x80, 0x80, 0x08, 0x00,
   0x80, 0x08, 0x88, 0x80, 0x80, 0x80, 0x08, 0x00, 0x80, 0x08, 0x88, 0x80,
   0x80, 0x80, 0x08, 0x00, 0x80, 0x08, 0x88, 0x80, 0x80, 0x80, 0x08, 0x00,
   0xf8, 0x88, 0xff, 0xff, 0x8f, 0x88, 0xf8, 0xff, 0xf8, 0x88, 0xff, 0xff,
   0x8f, 0x88, 0xf8, 0xff, 0xf8, 0x88, 0xff, 0xff, 0x8f, 0x88, 0xf8, 0xff,
   0x08, 0x88, 0x00, 0x00, 0x08, 0x08, 0x80, 0x00, 0x08, 0x88, 0x00, 0x00,
   0x08, 0x08, 0x80, 0x00, 0x08, 0x88, 0x00, 0x00, 0x08, 0x08, 0x80, 0x00,
   0x08, 0x88, 0x00, 0x00, 0x08, 0x08, 0x80, 0x00, 0x08, 0x88, 0x00, 0x00,
   0x08, 0x08, 0x80, 0x00, 0x08, 0x88, 0x00, 0x00, 0x08, 0x08, 0x80, 0x00,
   0x08, 0x88, 0x00, 0x00, 0x08, 0x08, 0x80, 0x00, 0x08, 0x88, 0x00, 0x00,
   0x08, 0x08, 0x80, 0x00, 0x08, 0x88, 0x00, 0x00, 0x08, 0x08, 0x80, 0x00,
   0x8f, 0x8f, 0xf8, 0xf8, 0xff, 0xff, 0x8f, 0xff, 0x8f, 0x8f, 0xf8, 0xf8,
   0xff, 0xff, 0x8f, 0xff, 0x8f, 0x8f, 0xf8, 0xf8, 0xff, 0xff, 0x8f, 0xff,
   0x08, 0x80, 0x88, 0x00, 0x08, 0x00, 0x08, 0x08, 0x08, 0x80, 0x88, 0x00,
   0x08, 0x00, 0x08, 0x08, 0x08, 0x80, 0x88, 0x00, 0x08, 0x00, 0x08, 0x08,
   0x08, 0x80, 0x88, 0x00, 0x08, 0x00, 0x08, 0x08, 0x08, 0x80, 0x88, 0x00,
   0x08, 0x00, 0x08, 0x08, 0x08, 0x80, 0x88, 0x00, 0x08, 0x00, 0x08, 0x08,
   0x08, 0x80, 0x88, 0x00, 0x08, 0x00, 0x08, 0x08, 0x08, 0x80, 0x88, 0x00,
   0x08, 0x00, 0x08, 0x08, 0x08, 0x80, 0x88, 0x00, 0x08, 0x00, 0x08, 0x08,
   0xf8, 0xff, 0x88, 0xff, 0x88, 0xf8, 0xf8, 0x88, 0xf8, 0xff, 0x88, 0xff,
   0x88, 0xf8, 0xf8, 0x88, 0xf8, 0xff, 0x88, 0xff, 0x88, 0xf8, 0xf8, 0x88,
   0x08, 0x88, 0x00, 0x08, 0x88, 0x80, 0x00, 0x88, 0x08, 0x88, 0x00, 0x08,
   0x88, 0x80, 0x00, 0x88, 0x08, 0x88, 0x00, 0x08, 0x88, 0x80, 0x00, 0x88,
   0x08, 0x88, 0x00, 0x08, 0x88, 0x80, 0x00, 0x88, 0x08, 0x88, 0x00, 0x08,
   0x88, 0x80, 0x00, 0x88, 0x08, 0x88, 0x00, 0x08, 0x88, 0x80, 0x00, 0x88,
   0x08, 0x88, 0x00, 0x08, 0x88, 0x80, 0x00, 0x88, 0x08, 0x88, 0x00, 0x08,
   0x88, 0x80, 0x00, 0x88, 0x08, 0x88, 0x00, 0x08, 0x88, 0x80, 0x00, 0x88,
   0x8f, 0x88, 0xff, 0x8f, 0xf8, 0x8f, 0x8f, 0x8f, 0x8f, 0x88, 0xff, 0x8f,
   0xf8, 0x8f, 0x8f, 0x8f, 0x8f, 0x88, 0xff, 0x8f, 0xf8, 0x8f, 0x8f, 0x8f,
   0x80, 0x08, 0x00, 0x88, 0x00, 0x80, 0x00, 0x80, 0x80, 0x08, 0x00, 0x88,
   0x00, 0x80, 0x00, 0x80, 0x80, 0x08, 0x00, 0x88, 0x00, 0x80, 0x00, 0x80,
   0x80, 0x08, 0x00, 0x88, 0x00, 0x80, 0x00, 0x80, 0x80, 0x08, 0x00, 0x88,
   0x00, 0x80, 0x00, 0x80, 0x80, 0x08, 0x00, 0x88, 0x00, 0x80, 0x00, 0x80,
   0x80, 0x08, 0x00, 0x88, 0x00, 0x80, 0x00, 0x80, 0x80, 0x08, 0x00, 0x88,
   0x00, 0x80, 0x00, 0x80, 0x80, 0x08, 0x00, 0x88, 0x00, 0x80, 0x00, 0x80,
   0xf8, 0x88, 0xf8, 0x88, 0xf8, 0xff, 0xf8, 0xff, 0xf8, 0x88, 0xf8, 0x88,
   0xf8, 0xff, 0xf8, 0xff, 0xf8, 0x88, 0xf8, 0x88, 0xf8, 0xff, 0xf8, 0xff,
   0x08, 0x88, 0x80, 0x80, 0x88, 0x80, 0x08, 0x80, 0x08, 0x88, 0x80, 0x80,
   0x88, 0x80, 0x08, 0x80, 0x08, 0x88, 0x80, 0x80, 0x88, 0x80, 0x08, 0x80,
   0x08, 0x88, 0x80, 0x80, 0x88, 0x80, 0x08, 0x80, 0x08, 0x88, 0x80, 0x80,
   0x88, 0x80, 0x08, 0x80, 0x08, 0x88, 0x80, 0x80, 0x88, 0x80, 0x08, 0x80,
   0x08, 0x88, 0x80, 0x80, 0x88, 0x80, 0x08, 0x80, 0x08, 0x88, 0x80, 0x80,
   0x88, 0x80, 0x08, 0x80, 0x08, 0x88, 0x80, 0x80, 0x88, 0x80, 0x08, 0x80,
   0xf8, 0xff, 0xf8, 0xff, 0x8f, 0x88, 0x88, 0x8f, 0xf8, 0xff, 0xf8, 0xff,
   0x8f, 0x88, 0x88, 0x8f, 0xf8, 0xff, 0xf8, 0xff, 0x8f, 0x88, 0x88, 0x8f,
   0x00, 0x00, 0x08, 0x00, 0x88, 0x88, 0x88, 0x80, 0x00, 0x00, 0x08, 0x00,
   0x88, 0x88, 0x88, 0x80, 0x00, 0x00, 0x08, 0x00, 0x88, 0x88, 0x88, 0x80,
   0x00, 0x00, 0x08, 0x00, 0x88, 0x88, 0x88, 0x80, 0x00, 0x00, 0x08, 0x00,
   0x88, 0x88, 0x88, 0x80, 0x00, 0x00, 0x08, 0x00, 0x88, 0x88, 0x88, 0x80,
   0x00, 0x00, 0x08, 0x00, 0x88, 0x88, 0x88, 0x80, 0x00, 0x00, 0x08, 0x00,
   0x88, 0x88, 0x88, 0x80, 0x00, 0x00, 0x08, 0x00, 0x88, 0x88, 0x88, 0x80,
   0xff, 0xff, 0x88, 0xff, 0x88, 0x88, 0xf8, 0xf8, 0xff, 0xff, 0x88, 0xff,
   0x88, 0x88, 0xf8, 0xf8, 0xff, 0xff, 0x88, 0xff, 0x88, 0x88, 0xf8, 0xf8,
   0x08, 0x80, 0x80, 0x00, 0x08, 0x88, 0x08, 0x08, 0x08, 0x80, 0x80, 0x00,
   0x08, 0x88, 0x08, 0x08, 0x08, 0x80, 0x80, 0x00, 0x08, 0x88, 0x08, 0x08,
   0x08, 0x80, 0x80, 0x00, 0x08, 0x88, 0x08, 0x08, 0x08, 0x80, 0x80, 0x00,
   0x08, 0x88, 0x08, 0x08, 0x08, 0x80, 0x80, 0x00, 0x08, 0x88, 0x08, 0x08,
   0x08, 0x80, 0x80, 0x00, 0x08, 0x88, 0x08, 0x08, 0x08, 0x80, 0x80, 0x00,
   0x08, 0x88, 0x08, 0x08, 0x08, 0x80, 0x80, 0x00, 0x08, 0x88, 0x08, 0x08,
   0x88, 0x8f, 0xf8, 0x8f, 0x8f, 0x8f, 0x88, 0x8f, 0x88, 0x8f, 0xf8, 0x8f,
   0x8f, 0x8f, 0x88, 0x8f, 0x88, 0x8f, 0xf8, 0x8f, 0x8f, 0x8f, 0x88, 0x8f,
   0x88, 0x80, 0x08, 0x08, 0x08, 0x08, 0x80, 0x80, 0x88, 0x80, 0x08, 0x08,
   0x08, 0x08, 0x80, 0x80, 0x88, 0x80, 0x08, 0x08, 0x08, 0x08, 0x80, 0x80,
   0x88, 0x80, 0x08, 0x08, 0x08, 0x08, 0x80, 0x80, 0x88, 0x80, 0x08, 0x08,
   0x08, 0x08, 0x80, 0x80, 0x88, 0x80, 0x08, 0x08, 0x08, 0x08, 0x80, 0x80,
   0x88, 0x80, 0x08, 0x08, 0x08, 0x08, 0x80, 0x80, 0x88, 0x80, 0x08, 0x08,
   0x08, 0x08, 0x80, 0x80, 0x88, 0x80, 0x08, 0x08, 0x08, 0x08, 0x80, 0x80,
   0x8f, 0xf8, 0x88, 0xf8, 0xf8, 0xf8, 0xff, 0xf8, 0x8f, 0xf8, 0x88, 0xf8,
   0xf8, 0xf8, 0xff, 0xf8, 0x8f, 0xf8, 0x88, 0xf8, 0xf8, 0xf8, 0xff, 0xf8,
   0x80, 0x80, 0x88, 0x80, 0x80, 0x80, 0x00, 0x88, 0x80, 0x80, 0x88, 0x80,
   0x80, 0x80, 0x00, 0x88, 0x80, 0x80, 0x88, 0x80, 0x80, 0x80, 0x00, 0x88,
   0x80, 0x80, 0x88, 0x80, 0x80, 0x80, 0x00, 0x88, 0x80, 0x80, 0x88, 0x80,
   0x80, 0x80, 0x00, 0x88, 0x80, 0x80, 0x88, 0x80, 0x80, 0x80, 0x00, 0x88,
   0x80, 0x80, 0x88, 0x80, 0x80, 0x80, 0x00, 0x88, 0x80, 0x80, 0x88, 0x80,
   0x80, 0x80, 0x00, 0x88, 0x80, 0x80, 0x88, 0x80, 0x80, 0x80, 0x00, 0x88,
   0xf8, 0x8f, 0x88, 0x8f, 0x88, 0x8f, 0xf8, 0x88, 0xf8, 0x8f, 0x88, 0x8f,
   0x88, 0x8f, 0xf8, 0x88, 0xf8, 0x8f, 0x88, 0x8f, 0x88, 0x8f, 0xf8, 0x88,
   0x00, 0x88, 0x88, 0x80, 0x88, 0x80, 0x08, 0x08, 0x00, 0x88, 0x88, 0x80,
   0x88, 0x80, 0x08, 0x08, 0x00, 0x88, 0x88, 0x80, 0x88, 0x80, 0x08, 0x08,
   0x00, 0x88, 0x88, 0x80, 0x88, 0x80, 0x08, 0x08, 0x00, 0x88, 0x88, 0x80,
   0x88, 0x80, 0x08, 0x08, 0x00, 0x88, 0x88, 0x80, 0x88, 0x80, 0x08, 0x08,
   0x00, 0x88, 0x88, 0x80, 0x88, 0x80, 0x08, 0x08, 0x00, 0x88, 0x88, 0x80,
   0x88, 0x80, 0x08, 0x08, 0x00, 0x88, 0x88, 0x80, 0x88, 0x80, 0x08, 0x08,
   0xff, 0x8f, 0x88, 0xf8, 0x88, 0xff, 0xf8, 0xff, 0xff, 0x8f, 0x88, 0xf8,
   0x88, 0xff, 0xf8, 0xff, 0xff, 0x8f, 0x88, 0xf8, 0x88, 0xff, 0xf8, 0xff,
   0x80, 0x80, 0x88, 0x80, 0x08, 0x80, 0x08, 0x00, 0x80, 0x80, 0x88, 0x80,
   0x08, 0x80, 0x08, 0x00, 0x80, 0x80, 0x88, 0x80, 0x08, 0x80, 0x08, 0x00,
   0x80, 0x80, 0x88, 0x80, 0x08, 0x80, 0x08, 0x00, 0x80, 0x80, 0x88, 0x80,
   0x08, 0x80, 0x08, 0x00, 0x80, 0x80, 0x88, 0x80, 0x08, 0x80, 0x08, 0x00,
   0x80, 0x80, 0x88, 0x80, 0x08, 0x80, 0x08, 0x00, 0x80, 0x80, 0x88, 0x80,
   0x08, 0x80, 0x08, 0x00, 0x80, 0x80, 0x88, 0x80, 0x08, 0x80, 0x08, 0x00,
   0x88, 0xf8, 0x88, 0xff, 0xf8, 0xf8, 0x88, 0xff, 0x88, 0xf8, 0x88, 0xff,
   0xf8, 0xf8, 0x88, 0xff, 0x88, 0xf8, 0x88, 0xff, 0xf8, 0xf8, 0x88, 0xff,
   0x88, 0x80, 0x08, 0x80, 0x08, 0x08, 0x08, 0x80, 0x88, 0x80, 0x08, 0x80,
   0x08, 0x08, 0x08, 0x80, 0x88, 0x80, 0x08, 0x80, 0x08, 0x08, 0x08, 0x80,
   0x88, 0x80, 0x08, 0x80, 0x08, 0x08, 0x08, 0x80, 0x88, 0x80, 0x08, 0x80,
   0x08, 0x08, 0x08, 0x80, 0x88, 0x80, 0x08, 0x80, 0x08, 0x08, 0x08, 0x80,
   0x88, 0x80, 0x08, 0x80, 0x08, 0x08, 0x08, 0x80, 0x88, 0x80, 0x08, 0x80,
   0x08, 0x08, 0x08, 0x80, 0x88, 0x80, 0x08, 0x80, 0x08, 0x08, 0x08, 0x80,
   0x88, 0x8f, 0xf8, 0x8f, 0xf8, 0x8f, 0xff, 0xff, 0x88, 0x8f, 0xf8, 0x8f,
   0xf8, 0x8f, 0xff, 0xff, 0x88, 0x8f, 0xf8, 0x8f, 0xf8, 0x8f, 0xff, 0xff,
   0x08, 0x80, 0x08, 0x80, 0x08, 0x00, 0x00, 0x80, 0x08, 0x80, 0x08, 0x80,
   0x08, 0x00, 0x00, 0x80, 0x08, 0x80, 0x08, 0x80, 0x08, 0x00, 0x00, 0x80,
   0x08, 0x80, 0x08, 0x80, 0x08, 0x00, 0x00, 0x80, 0x08, 0x80, 0x08, 0x80,
   0x08, 0x00, 0x00, 0x80, 0x08, 0x80, 0x08, 0x80, 0x08, 0x00, 0x00, 0x80,
   0x08, 0x80, 0x08, 0x80, 0x08, 0x00, 0x00, 0x80, 0x08, 0x80, 0x08, 0x80,
   0x08, 0x00, 0x00, 0x80, 0x08, 0x80, 0x08, 0x80, 0x08, 0x00, 0x00, 0x80,
   0xf8, 0xff, 0x88, 0xf8, 0x88, 0xff, 0xff, 0x8f, 0xf8, 0xff, 0x88, 0xf8,
   0x88, 0xff, 0xff, 0x8f, 0xf8, 0xff, 0x88, 0xf8, 0x88, 0xff, 0xff, 0x8f,
   0x00, 0x00, 0x88, 0x08, 0x88, 0x08, 0x00, 0x88, 0x00, 0x00, 0x88, 0x08,
   0x88, 0x08, 0x00, 0x88, 0x00, 0x00, 0x88, 0x08, 0x88, 0x08, 0x00, 0x88,
   0x00, 0x00, 0x88, 0x08, 0x88, 0x08, 0x00, 0x88, 0x00, 0x00, 0x88, 0x08,
   0x88, 0x08, 0x00, 0x88, 0x00, 0x00, 0x88, 0x08, 0x88, 0x08, 0x00, 0x88,
   0x00, 0x00, 0x88, 0x08, 0x88, 0x08, 0x00, 0x88, 0x00, 0x00, 0x88, 0x08,
   0x88, 0x08, 0x00, 0x88, 0x00, 0x00, 0x88, 0x08, 0x88, 0x08, 0x00, 0x88,
   0xff, 0xff, 0x8f, 0x88, 0x8f, 0x88, 0xff, 0x88, 0xff, 0xff, 0x8f, 0x88,
   0x8f, 0x88, 0xff, 0x88, 0xff, 0xff, 0x8f, 0x88, 0x8f, 0x88, 0xff, 0x88,
   0x08, 0x00, 0x88, 0x88, 0x80, 0x80, 0x80, 0x80, 0x08, 0x00, 0x88, 0x88,
   0x80, 0x80, 0x80, 0x80, 0x08, 0x00, 0x88, 0x88, 0x80, 0x80, 0x80, 0x80,
   0x08, 0x00, 0x88, 0x88, 0x80, 0x80, 0x80, 0x80, 0x08, 0x00, 0x88, 0x88,
   0x80, 0x80, 0x80, 0x80, 0x08, 0x00, 0x88, 0x88, 0x80, 0x80, 0x80, 0x80,
   0x08, 0x00, 0x88, 0x88, 0x80, 0x80, 0x80, 0x80, 0x08, 0x00, 0x88, 0x88,
   0x80, 0x80, 0x80, 0x80, 0x08, 0x00, 0x88, 0x88, 0x80, 0x80, 0x80, 0x80,
   0x88, 0xff, 0x88, 0x88, 0xf8, 0xff, 0x88, 0xff, 0x88, 0xff, 0x88, 0x88,
   0xf8, 0xff, 0x88, 0xff, 0x88, 0xff, 0x88, 0x88, 0xf8, 0xff, 0x88, 0xff,
   0x80, 0x08, 0x88, 0x80, 0x80, 0x80, 0x08, 0x00, 0x80, 0x08, 0x88, 0x80,
   0x80, 0x80, 0x08, 0x00, 0x80, 0x08, 0x88, 0x80, 0x80, 0x80, 0x08, 0x00,
   0x80, 0x08, 0x88, 0x80, 0x80, 0x80, 0x08, 0x00, 0x80, 0x08, 0x88, 0x80,
   0x80, 0x80, 0x08, 0x00, 0x80, 0x08, 0x88, 0x80, 0x80, 0x80, 0x08, 0x00,
   0x80, 0x08, 0x88, 0x80, 0x80, 0x80, 0x08, 0x00, 0x80, 0x08, 0x88, 0x80,
   0x80, 0x80, 0x08, 0x00, 0x80, 0x08, 0x88, 0x80, 0x80, 0x80, 0x08, 0x00,
   0xf8, 0x88, 0xff, 0xff, 0x8f, 0x88, 0xf8, 0xff, 0xf8, 0x88, 0xff, 0xff,
   0x8f, 0x88, 0xf8, 0xff, 0xf8, 0x88, 0xff, 0xff, 0x8f, 0x88, 0xf8, 0xff,
   0x08, 0x88, 0x00, 0x00, 0x08, 0x08, 0x80, 0x00, 0x08, 0x88, 0x00, 0x00,
   0x08, 0x08, 0x80, 0x00, 0x08, 0x88, 0x00, 0x00, 0x08, 0x08, 0x80, 0x00,
   0x08, 0x88, 0x00, 0x00, 0x08, 0x08, 0x80, 0x00, 0x08, 0x88, 0x00, 0x00,
   0x08, 0x08, 0x80, 0x00, 0x08, 0x88, 0x00, 0x00, 0x08, 0x08, 0x80, 0x00,
   0x08, 0x88, 0x00, 0x00, 0x08, 0x08, 0x80, 0x00, 0x08, 0x88, 0x00, 0x00,
   0x08, 0x08, 0x80, 0x00, 0x08, 0x88, 0x00, 0x00, 0x08, 0x08, 0x80, 0x00,
   0x8f, 0x8f, 0xf8, 0xf8, 0xff, 0xff, 0x8f, 0xff, 0x8f, 0x8f, 0xf8, 0xf8,
   0xff, 0xff, 0x8f, 0xff, 0x8f, 0x8f, 0xf8, 0xf8, 0xff, 0xff, 0x8f, 0xff,
   0x08, 0x80, 0x88, 0x00, 0x08, 0x00, 0x08, 0x08, 0x08, 0x80, 0x88, 0x00,
   0x08, 0x00, 0x08, 0x08, 0x08, 0x80, 0x88, 0x00, 0x08, 0x00, 0x08, 0x08,
   0x08, 0x80, 0x88, 0x00, 0x08, 0x00, 0x08, 0x08, 0x08, 0x80, 0x88, 0x00,
   0x08, 0x00, 0x08, 0x08, 0x08, 0x80, 0x88, 0x00, 0x08, 0x00, 0x08, 0x08,
   0x08, 0x80, 0x88, 0x00, 0x08, 0x00, 0x08, 0x08, 0x08, 0x80, 0x88, 0x00,
   0x08, 0x00, 0x08, 0x08, 0x08, 0x80, 0x88, 0x00, 0x08, 0x00, 0x08, 0x08,
   0xf8, 0xff, 0x88, 0xff, 0x88, 0xf8, 0xf8, 0x88, 0xf8, 0xff, 0x88, 0xff,
   0x88, 0xf8, 0xf8, 0x88, 0xf8, 0xff, 0x88, 0xff, 0x88, 0xf8, 0xf8, 0x88 };
