#define 4x4dot4_width 4
#define 4x4dot4_height 4
static unsigned char 4x4dot4_bits[] = {
   0x00, 0x06, 0x06, 0x00 };
