#define 8x8cross3_width 8
#define 8x8cross3_height 8
static unsigned char 8x8cross3_bits[] = {
   0x30, 0x30, 0x03, 0x03, 0xc0, 0xc0, 0x0c, 0x0c };
