#define floral6_width 47
#define floral6_height 60
static unsigned char floral6_bits[] = {
   0xf8, 0xc8, 0x28, 0x65, 0x96, 0x2e, 0x74, 0xc4, 0xb0, 0xa2, 0x4c, 0x31,
   0x8a, 0x42, 0x53, 0x41, 0xa1, 0x28, 0x06, 0x85, 0xa3, 0x80, 0x51, 0x1c,
   0x06, 0x06, 0x40, 0x0f, 0x2b, 0x00, 0x6a, 0x0a, 0xa0, 0x17, 0x15, 0x00,
   0x54, 0xea, 0x50, 0x28, 0x0d, 0x0e, 0x38, 0xd4, 0x29, 0x32, 0x83, 0x31,
   0x00, 0x24, 0x1b, 0x2e, 0x43, 0x4f, 0xc1, 0x99, 0x2a, 0x9c, 0xa2, 0x10,
   0xa1, 0x99, 0x51, 0x80, 0x51, 0x20, 0x61, 0x30, 0x88, 0x78, 0x2a, 0x40,
   0x61, 0x50, 0x74, 0xff, 0x14, 0x26, 0xa0, 0xa0, 0x8a, 0x04, 0x09, 0x5a,
   0x40, 0x41, 0x05, 0x03, 0x11, 0x3c, 0x20, 0x42, 0x72, 0x66, 0x6a, 0x00,
   0xd0, 0x44, 0x29, 0x36, 0xb6, 0x01, 0x28, 0x49, 0x19, 0x35, 0xc6, 0x06,
   0x14, 0x52, 0xf1, 0xe2, 0x03, 0x1f, 0x0c, 0xa4, 0x60, 0xc1, 0x01, 0x28,
   0x0c, 0x89, 0x80, 0x07, 0xf0, 0x51, 0x98, 0x91, 0x00, 0x1a, 0xfc, 0x62,
   0x69, 0xa1, 0x70, 0x2c, 0x0a, 0x25, 0xf2, 0x40, 0xa9, 0xd0, 0x05, 0x46,
   0x03, 0x40, 0xd9, 0x20, 0x62, 0x06, 0x05, 0x4e, 0xc1, 0x40, 0x31, 0x05,
   0x0a, 0xc5, 0xa2, 0x80, 0xd1, 0x42, 0x95, 0x62, 0x5d, 0x80, 0xe2, 0x21,
   0xa8, 0x51, 0x39, 0x18, 0x03, 0x60, 0xf0, 0x28, 0x06, 0xa8, 0x02, 0x60,
   0xc1, 0x18, 0x06, 0x50, 0x05, 0x27, 0xc1, 0x0c, 0x0c, 0xe0, 0x86, 0x4a,
   0xc0, 0x07, 0x18, 0x00, 0x4a, 0x15, 0x00, 0x05, 0x98, 0x0f, 0x4a, 0x15,
   0xc0, 0x02, 0x68, 0x17, 0xcc, 0x18, 0xa0, 0xc1, 0x93, 0x38, 0x14, 0x18,
   0x50, 0xa0, 0x55, 0x60, 0x28, 0x18, 0x28, 0x60, 0x36, 0x66, 0xc8, 0x14,
   0x94, 0x63, 0x30, 0x63, 0x68, 0x0b, 0xca, 0x65, 0x30, 0x53, 0x98, 0x07,
   0x46, 0xaa, 0x28, 0x2e, 0x18, 0x00, 0x06, 0xcc, 0x17, 0x1c, 0x28, 0x00,
   0x0a, 0x0a, 0x0f, 0x00, 0xc8, 0x07, 0x14, 0x05, 0x80, 0x00, 0xc8, 0x1b,
   0xe8, 0x02, 0x80, 0xe1, 0x28, 0x2c, 0xf0, 0x01, 0x0f, 0x53, 0x29, 0x50,
   0x01, 0x80, 0x16, 0xb6, 0x15, 0x20, 0xc1, 0x41, 0x29, 0x1a, 0x94, 0x43,
   0xa2, 0xc7, 0x50, 0x14, 0x94, 0x42, 0x54, 0xca, 0x60, 0x18, 0x4c, 0x41,
   0x2a, 0xcc, 0x60, 0x28, 0xc6, 0x40, 0x25, 0x4c, 0x61, 0xd0, 0x45, 0x21,
   0x28, 0x8a, 0xce, 0xd0, 0x83, 0x62, 0x48, 0x06, 0xc7, 0x28, 0x80, 0x5d,
   0x50, 0x30, 0x40, 0x15, 0x00, 0x2e, 0x90, 0x50, 0x80, 0x0d, 0x00, 0x30,
   0x20, 0x61, 0x00, 0x8b, 0x0f, 0x18, 0x40, 0x32, 0x07, 0x45, 0x17, 0x14,
   0x80, 0x9a, 0x0a, 0xa6, 0x18, 0x0a, 0x00, 0x55, 0x15, 0x66, 0x18, 0x11 };
