#define lace7_width 21
#define lace7_height 21
static unsigned char lace7_bits[] = {
   0x66, 0x60, 0x06, 0x8e, 0x16, 0x07, 0xdd, 0xb9, 0x1b, 0x98, 0x90, 0x01,
   0x21, 0x46, 0x18, 0x8b, 0x19, 0x0d, 0x5d, 0xa6, 0x0b, 0x4e, 0x29, 0x17,
   0xa1, 0x56, 0x18, 0xa1, 0x56, 0x18, 0x4e, 0x29, 0x17, 0x5d, 0xa6, 0x0b,
   0x8b, 0x19, 0x0d, 0x21, 0x46, 0x18, 0x98, 0x90, 0x01, 0xdd, 0xb9, 0x1b,
   0x8e, 0x16, 0x07, 0x46, 0x20, 0x06, 0xa9, 0x56, 0x09, 0x28, 0x4f, 0x11,
   0xa9, 0x56, 0x09 };
