#define lace5_width 23
#define lace5_height 24
static unsigned char lace5_bits[] = {
   0x01, 0x49, 0x40, 0x20, 0x00, 0x02, 0x04, 0x63, 0x10, 0x0a, 0x00, 0x28,
   0x44, 0x00, 0x11, 0x00, 0x00, 0x00, 0x21, 0x08, 0x42, 0x08, 0x49, 0x08,
   0x00, 0x00, 0x00, 0x42, 0x08, 0x21, 0x02, 0x22, 0x20, 0x00, 0x00, 0x00,
   0x60, 0x41, 0x03, 0x00, 0x00, 0x00, 0x02, 0x22, 0x20, 0x42, 0x08, 0x21,
   0x00, 0x00, 0x00, 0x08, 0x49, 0x08, 0x21, 0x08, 0x42, 0x00, 0x00, 0x00,
   0x44, 0x01, 0x11, 0x0a, 0x00, 0x28, 0x04, 0x63, 0x10, 0x20, 0x00, 0x02 };
