#define lace4_width 22
#define lace4_height 22
static unsigned char lace4_bits[] = {
   0x10, 0x04, 0x05, 0x28, 0xaa, 0x28, 0x04, 0x10, 0x00, 0xa2, 0x82, 0x08,
   0xa1, 0x42, 0x10, 0x1a, 0x0c, 0x05, 0x80, 0x00, 0x02, 0x58, 0x8d, 0x08,
   0x80, 0x00, 0x02, 0x1a, 0x0c, 0x05, 0xa1, 0x42, 0x10, 0xa2, 0x82, 0x08,
   0x04, 0x10, 0x00, 0x28, 0xaa, 0x28, 0x10, 0x04, 0x07, 0x0a, 0x28, 0x20,
   0x21, 0x42, 0x15, 0x40, 0x41, 0x12, 0x21, 0x42, 0x15, 0x0a, 0x28, 0x20,
   0x10, 0x04, 0x07, 0x02, 0x80, 0x08 };
