#define scales2_width 50
#define scales2_height 50
static unsigned char scales2_bits[] = {
   0x00, 0x02, 0x08, 0x20, 0x80, 0x00, 0x02, 0x00, 0x02, 0x08, 0x20, 0x80,
   0x00, 0x02, 0x00, 0x02, 0x08, 0x20, 0x80, 0x00, 0x02, 0x00, 0x02, 0x08,
   0x20, 0x80, 0x00, 0x02, 0x00, 0x01, 0x04, 0x10, 0x40, 0x00, 0x01, 0x00,
   0x01, 0x04, 0x10, 0x40, 0x00, 0x01, 0x80, 0x00, 0x02, 0x08, 0x20, 0x80,
   0x00, 0xc0, 0x00, 0x03, 0x0c, 0x30, 0xc0, 0x00, 0x30, 0xc1, 0x04, 0x13,
   0x4c, 0x30, 0x01, 0x0f, 0x3e, 0xf8, 0xe0, 0x83, 0x0f, 0x02, 0x00, 0x02,
   0x08, 0x20, 0x80, 0x00, 0x02, 0x00, 0x02, 0x08, 0x20, 0x80, 0x00, 0x02,
   0x00, 0x02, 0x08, 0x20, 0x80, 0x00, 0x02, 0x00, 0x02, 0x08, 0x20, 0x80,
   0x00, 0x02, 0x00, 0x01, 0x04, 0x10, 0x40, 0x00, 0x01, 0x00, 0x01, 0x04,
   0x10, 0x40, 0x00, 0x01, 0x80, 0x00, 0x02, 0x08, 0x20, 0x80, 0x00, 0xc0,
   0x00, 0x03, 0x0c, 0x30, 0xc0, 0x00, 0x30, 0xc1, 0x04, 0x13, 0x4c, 0x30,
   0x01, 0x0f, 0x3e, 0xf8, 0xe0, 0x83, 0x0f, 0x02, 0x00, 0x02, 0x08, 0x20,
   0x80, 0x00, 0x02, 0x00, 0x02, 0x08, 0x20, 0x80, 0x00, 0x02, 0x00, 0x02,
   0x08, 0x20, 0x80, 0x00, 0x02, 0x00, 0x02, 0x08, 0x20, 0x80, 0x00, 0x02,
   0x00, 0x01, 0x04, 0x10, 0x40, 0x00, 0x01, 0x00, 0x01, 0x04, 0x10, 0x40,
   0x00, 0x01, 0x80, 0x00, 0x02, 0x08, 0x20, 0x80, 0x00, 0xc0, 0x00, 0x03,
   0x0c, 0x30, 0xc0, 0x00, 0x30, 0xc1, 0x04, 0x13, 0x4c, 0x30, 0x01, 0x0f,
   0x3e, 0xf8, 0xe0, 0x83, 0x0f, 0x02, 0x00, 0x02, 0x08, 0x20, 0x80, 0x00,
   0x02, 0x00, 0x02, 0x08, 0x20, 0x80, 0x00, 0x02, 0x00, 0x02, 0x08, 0x20,
   0x80, 0x00, 0x02, 0x00, 0x02, 0x08, 0x20, 0x80, 0x00, 0x02, 0x00, 0x01,
   0x04, 0x10, 0x40, 0x00, 0x01, 0x00, 0x01, 0x04, 0x10, 0x40, 0x00, 0x01,
   0x80, 0x00, 0x02, 0x08, 0x20, 0x80, 0x00, 0xc0, 0x00, 0x03, 0x0c, 0x30,
   0xc0, 0x00, 0x30, 0xc1, 0x04, 0x13, 0x4c, 0x30, 0x01, 0x0f, 0x3e, 0xf8,
   0xe0, 0x83, 0x0f, 0x02, 0x00, 0x02, 0x08, 0x20, 0x80, 0x00, 0x02, 0x00,
   0x02, 0x08, 0x20, 0x80, 0x00, 0x02, 0x00, 0x02, 0x08, 0x20, 0x80, 0x00,
   0x02, 0x00, 0x02, 0x08, 0x20, 0x80, 0x00, 0x02, 0x00, 0x01, 0x04, 0x10,
   0x40, 0x00, 0x01, 0x00, 0x01, 0x04, 0x10, 0x40, 0x00, 0x01, 0x80, 0x00,
   0x02, 0x08, 0x20, 0x80, 0x00, 0xc0, 0x00, 0x03, 0x0c, 0x30, 0xc0, 0x00,
   0x30, 0xc1, 0x04, 0x13, 0x4c, 0x30, 0x01, 0x0f, 0x3e, 0xf8, 0xe0, 0x83,
   0x0f, 0x02 };
